<svg width="188" height="189" viewBox="0 0 188 189" fill="none" xmlns="http://www.w3.org/2000/svg">
<path d="M100.9 186.71C100.9 186.71 104.216 164.288 103.733 149.863C103.264 135.837 98.6962 114.287 98.6962 114.287C98.6962 114.287 106.974 116.535 111.604 116.51C116.108 116.486 125.771 114.287 125.771 114.287L132.697 155.899L138.696 114.287C138.696 114.287 145.196 114.287 154.696 114.287C164.196 114.287 174.696 105.21 174.696 105.21C174.696 105.21 171.734 133.987 159.771 163.21C157.268 169.326 141.826 185.758 141.826 185.758L144.345 147.005L147.808 145.734L136.789 173.052H127.974L114.437 145.734H119.159L121.665 186.71H100.9Z" fill="#101011"/>
<path d="M8.69617 118.71L4.69667 118.647L4.62047 123.444L9.35309 122.656L54.8172 115.087L58.0425 114.55L58.0737 113.666L60.7576 113.561L109.244 111.668L117.475 111.347L112.133 105.077L88.095 76.8658C89.1138 75.5269 90.4867 73.7571 92.0697 71.8049C95.5406 67.5242 99.8679 62.5582 103.634 59.2776C108.45 55.0829 114.022 50.8205 118.422 47.5865C120.616 45.9745 122.504 44.6284 123.842 43.6865C124.511 43.2157 125.041 42.8464 125.403 42.5958C125.584 42.4706 125.723 42.375 125.815 42.3114L125.919 42.2401L125.944 42.2229L125.95 42.219L125.951 42.2183L125.951 42.2182L125.951 42.2182L131.917 38.1465L125.3 35.2502L123.696 38.9145C125.3 35.2502 125.3 35.25 125.299 35.2499L125.298 35.2494L125.295 35.248L125.285 35.2433L125.246 35.2266L125.102 35.1643C124.978 35.1104 124.796 35.0321 124.562 34.9323C124.093 34.7327 123.416 34.447 122.57 34.0979C120.878 33.4004 118.506 32.4475 115.776 31.4238C110.371 29.3967 103.359 27.0135 97.4299 25.8436C91.11 24.5966 84.2557 25.237 79.1856 26.0967C76.6099 26.5334 74.406 27.0427 72.8399 27.4443C72.0556 27.6455 71.4276 27.8206 70.9889 27.9475C70.7695 28.011 70.5972 28.0625 70.476 28.0994C70.4154 28.1178 70.3676 28.1325 70.3331 28.1433L70.2913 28.1563L70.278 28.1605L70.2732 28.162L70.2714 28.1626C70.2708 28.1628 70.2703 28.1629 70.5839 29.1519C70.5838 29.1518 70.5837 29.1516 70.5835 29.1515L70.2698 28.1631L69.766 28.323C69.3603 27.9179 68.8197 27.3854 68.1585 26.7502C66.5995 25.2525 64.3636 23.1778 61.6376 20.8511C56.2168 16.2242 48.7235 10.4846 40.6755 6.34136C38.3873 5.16333 36.0049 4.57341 33.5897 4.73731C31.1686 4.90162 28.9999 5.80428 27.1167 7.16169C23.4854 9.77924 20.7407 14.2071 18.5744 19.1796C14.1939 29.2346 11.251 43.7528 9.23705 58.3138C7.20947 72.9733 6.07603 88.0555 5.44876 99.4477C5.1348 105.15 4.94694 109.941 4.83751 113.31C4.78278 114.994 4.74765 116.324 4.72616 117.235C4.71542 117.69 4.70808 118.041 4.70342 118.279C4.70108 118.398 4.69941 118.489 4.69832 118.55L4.6971 118.621L4.69679 118.639L4.69671 118.645C4.69669 118.646 4.69667 118.647 8.69617 118.71ZM70.6105 29.2356C70.6106 29.2359 70.6107 29.2362 70.6108 29.2365L70.6106 29.2367L70.6103 29.2358C70.6103 29.2357 70.6104 29.2356 70.6105 29.2356Z" fill="#101011" stroke="white" stroke-width="8"/>
<path d="M100.196 93.2108L97.4879 96.1545L97.6601 96.3129L97.8496 96.4502L100.196 93.2108ZM100.196 93.2108C97.4879 96.1545 97.4877 96.1543 97.4874 96.154L97.4866 96.1533L97.4841 96.151L97.4757 96.1432L97.4457 96.1155L97.3341 96.0121C97.2375 95.9225 97.0976 95.7922 96.9201 95.6257C96.5651 95.2929 96.0591 94.8149 95.4483 94.228C94.229 93.0565 92.5809 91.4407 90.8784 89.6739C89.1846 87.9162 87.3922 85.963 85.9055 84.1236C84.5378 82.4313 83.0312 80.3649 82.4014 78.4757L81.9798 77.2108L82.4014 75.9459C83.0397 74.0312 84.6372 71.8828 86.0769 70.1232C87.653 68.1968 89.5663 66.1233 91.3819 64.2441C93.2063 62.3556 94.9767 60.6174 96.2878 59.3539C96.9445 58.7211 97.4886 58.2049 97.87 57.8455C98.0608 57.6657 98.2111 57.525 98.3145 57.4284L98.4339 57.3172L98.4659 57.2875L98.4746 57.2794L98.4772 57.277L98.478 57.2762C98.4783 57.276 98.4785 57.2758 101.196 60.2108M100.196 93.2108C97.8496 96.4502 97.8497 96.4502 97.8498 96.4503L97.8502 96.4506L97.8515 96.4515L97.8563 96.455L97.8744 96.4681L97.944 96.5184L98.2096 96.7101C98.4401 96.8763 98.7743 97.1167 99.1906 97.415C100.023 98.0114 101.185 98.8403 102.507 99.7712C105.135 101.623 108.445 103.915 111.036 105.578C115.918 108.709 118.886 109.519 123.253 110.711C123.919 110.893 124.618 111.084 125.36 111.293C135.093 114.033 141.58 114.903 151.867 113.154C152.53 113.041 153.213 112.928 153.907 112.812C157.362 112.235 161.112 111.609 164.286 110.826C166.199 110.354 168.09 109.783 169.693 109.048C171.157 108.377 173.043 107.279 174.127 105.394C174.867 104.123 175.459 102.279 175.917 100.66C176.415 98.8963 176.887 96.8953 177.291 95.0423C177.697 93.1808 178.042 91.4245 178.287 90.1365C178.409 89.4913 178.506 88.961 178.573 88.5903C178.607 88.405 178.633 88.2594 178.65 88.1592L178.671 88.0436L178.676 88.0126L178.678 88.0041L178.678 88.0016L178.678 88.0008C178.678 88.0005 178.678 88.0002 174.737 87.3154L178.678 88.0002L178.683 87.9719L178.688 87.9435L181.503 70.2422L181.503 70.2406L181.52 70.1401C181.535 70.0533 181.557 69.9275 181.584 69.7653C181.638 69.4409 181.715 68.9705 181.807 68.375C181.992 67.1844 182.24 65.4906 182.495 63.4602C183.004 59.413 183.55 53.9688 183.671 48.485C183.791 43.0845 183.512 37.2941 182.194 32.7229C181.534 30.4359 180.526 28.1305 178.897 26.34C177.315 24.6004 175.212 23.4337 172.675 23.2395C171.583 22.9351 170.498 22.941 169.798 22.9666C168.658 23.0083 167.376 23.1778 166.084 23.4031C163.486 23.8564 160.432 24.6116 157.577 25.3922C154.703 26.178 151.943 27.0137 149.908 27.6508C148.889 27.97 148.047 28.2406 147.458 28.432C147.164 28.5277 146.933 28.6037 146.774 28.6562L146.591 28.7167L146.542 28.7329L146.529 28.7372L146.526 28.7385L146.524 28.7389C146.524 28.739 146.524 28.7391 147.792 32.5326M147.792 32.5326C146.418 28.7759 146.418 28.776 146.418 28.7761L146.417 28.7765L146.414 28.7774L146.405 28.7807L146.372 28.7929L146.248 28.8386C146.14 28.8785 145.983 28.937 145.78 29.0126C145.375 29.1639 144.791 29.3841 144.064 29.6624C142.613 30.2185 140.592 31.0084 138.309 31.9448C133.785 33.8003 128.074 36.2949 123.742 38.7208C118.282 41.7783 111.958 46.4368 107.098 50.2344C104.646 52.1511 102.524 53.8826 101.013 55.1357C100.258 55.7627 99.6541 56.2709 99.2376 56.624C99.0293 56.8005 98.8678 56.9383 98.7573 57.0329L98.6304 57.1416L98.5967 57.1706L98.5874 57.1786L98.5847 57.1809L98.5839 57.1816C98.5836 57.1819 98.5833 57.1821 101.196 60.2108M147.792 32.5326L146.524 28.7391L146.471 28.7568L146.418 28.7759L147.792 32.5326ZM101.196 60.2108L98.5833 57.1821L98.5301 57.228L98.4785 57.2758L101.196 60.2108Z" fill="#9A0809" stroke="white" stroke-width="8"/>
<path d="M29.7411 167.432L29.5493 168.241L30.1334 168.832L31.2006 167.778C30.1334 168.832 30.1335 168.832 30.1336 168.833L30.134 168.833L30.1355 168.834L30.1406 168.84L30.1598 168.859L30.233 168.932C30.2969 168.997 30.3907 169.09 30.5119 169.211C30.7543 169.451 31.1064 169.797 31.5482 170.225C32.4314 171.079 33.6752 172.258 35.119 173.56C37.9868 176.146 41.7174 179.282 44.9989 181.287C48.2573 183.278 51.129 184.497 53.2002 185.221C54.236 185.583 55.0724 185.822 55.6581 185.971C55.9509 186.046 56.1812 186.099 56.3425 186.133C56.4232 186.151 56.4866 186.163 56.532 186.172L56.5865 186.183L56.6034 186.186L56.6092 186.187L56.6115 186.187L56.6125 186.187C56.6129 186.187 56.6133 186.187 56.8747 184.71L56.6133 186.187L58.9531 186.602L58.3207 184.311L58.3206 184.311L58.3206 184.311L58.3201 184.309L58.318 184.302L58.3091 184.269L58.2731 184.136C58.2414 184.019 58.1946 183.844 58.1349 183.616C58.0156 183.161 57.8448 182.498 57.6407 181.668C57.2323 180.007 56.6911 177.684 56.1604 175.036C55.0926 169.708 54.0928 163.186 54.2535 158.105C54.369 154.452 55.1403 149.771 55.8999 145.95C56.2775 144.05 56.6477 142.385 56.9235 141.194C57.0111 140.816 57.0891 140.486 57.1548 140.212L81.9939 135.181L84.6 134.653L82.8009 132.696L82.8007 132.696L82.8004 132.695L82.7992 132.694L82.7896 132.683L82.7462 132.635C82.7068 132.591 82.6472 132.524 82.5702 132.436C82.4161 132.258 82.1929 131.996 81.9237 131.665C81.384 131 80.6661 130.064 79.9506 128.976C78.4691 126.724 77.1976 124.118 77.1962 121.998C77.195 120.249 78.3875 118.157 79.8652 116.314C80.5704 115.435 81.2797 114.687 81.8139 114.157C82.0801 113.893 82.3006 113.686 82.4523 113.547C82.5281 113.478 82.5866 113.425 82.6249 113.391L82.6667 113.354L82.6756 113.347L82.676 113.346L82.6764 113.346L82.6767 113.346L82.6768 113.345L85.9742 110.501L81.6234 110.712L81.6962 112.21C81.6234 110.712 81.6233 110.712 81.6231 110.712L81.6222 110.712L81.6188 110.712L81.6053 110.713L81.5525 110.716L81.346 110.726C81.1646 110.735 80.897 110.749 80.5516 110.766C79.8609 110.802 78.859 110.855 77.6135 110.923C75.1227 111.06 71.6562 111.261 67.7537 111.516C59.9582 112.024 50.3877 112.749 43.379 113.612C36.3457 114.477 27.5745 116.214 20.5897 117.726C17.0913 118.484 14.0297 119.187 11.8424 119.702C10.7486 119.959 9.87306 120.169 9.27046 120.315C8.96915 120.387 8.73605 120.444 8.57799 120.483L8.39802 120.527L8.35184 120.539L8.33998 120.541L8.33689 120.542L8.33606 120.542C8.33585 120.543 8.33571 120.543 8.69617 121.999L8.33571 120.543L6.7788 120.928L7.26749 122.456L15.1916 147.227L15.6052 148.52L16.9329 148.237L35.2163 144.341L29.7411 167.432Z" fill="#9A0809" stroke="white" stroke-width="3"/>
<path d="M79.2358 185.71C74.9067 185.71 71.132 184.887 67.9116 183.241C64.6913 181.594 62.1836 179.23 60.3886 176.15C58.5937 173.069 57.6962 169.431 57.6962 165.234C57.6962 160.985 58.5937 157.347 60.3886 154.319C62.1836 151.238 62.8278 142.67 66.0482 141.024C69.2686 139.377 74.9067 144.758 79.2358 144.758C83.5648 144.758 90.6679 139.377 93.8883 141.024C97.1087 142.67 96.2615 151.238 98.0037 154.319C99.7987 157.347 100.696 160.985 100.696 165.234C100.696 169.431 99.7987 173.069 98.0037 176.15C96.2615 179.23 93.7803 181.594 90.5599 183.241C87.3395 184.887 83.5648 185.71 79.2358 185.71ZM79.2358 175.273C81.3475 175.273 83.0897 174.477 84.4623 172.883C85.8349 171.29 86.5212 168.74 86.5212 165.234C86.5212 161.676 85.8349 159.126 84.4623 157.586C83.0897 155.992 81.3475 155.196 79.2358 155.196C77.0712 155.196 75.3027 155.992 73.9301 157.586C72.5574 159.126 71.8711 161.676 71.8711 165.234C71.8711 168.74 72.5574 171.29 73.9301 172.883C75.3027 174.477 77.0712 175.273 79.2358 175.273Z" fill="#9A0809"/>
</svg>
