<svg width="41" height="40" viewBox="0 0 41 40" fill="none" xmlns="http://www.w3.org/2000/svg">
<g clip-path="url(#clip0_268_131)">
<path d="M19.9302 40H21.5957C30.6374 40 35.1589 40 37.967 37.192C40.775 34.384 40.751 29.864 40.751 20.8448V19.1552C40.751 10.1376 40.751 5.61601 37.967 2.80801C35.183 8.04663e-06 30.6374 0 21.5957 0H19.9302C10.887 0 6.36698 8.04663e-06 3.55898 2.80801C0.750975 5.61601 0.750977 10.1344 0.750977 19.1552V20.8448C0.750977 29.864 0.750975 34.384 3.55898 37.192C6.36698 40 10.887 40 19.9302 40Z" fill="#0163BD"/>
<path d="M22.2153 28.8399C13.1961 28.8399 7.72257 22.5823 7.50977 12.1838H12.0778C12.2202 19.8223 15.6953 23.0638 18.3594 23.7246V12.1838H22.7385V18.7742C25.3082 18.4895 27.9962 15.491 28.9017 12.1838H33.2074C32.5178 16.2527 29.5914 19.251 27.521 20.4878C29.5914 21.4878 32.9225 24.1054 34.2074 28.8399H29.473C28.473 25.675 26.0217 23.2238 22.7385 22.891V28.8399H22.2153Z" fill="white"/>
</g>
<defs>
<clipPath id="clip0_268_131">
<rect width="40" height="40" fill="white" transform="translate(0.750977)"/>
</clipPath>
</defs>
</svg>
