<svg width="41" height="40" viewBox="0 0 41 40" fill="none" xmlns="http://www.w3.org/2000/svg">
<rect x="0.750977" width="40" height="40" rx="20" fill="#FF0000"/>
<path fill-rule="evenodd" clip-rule="evenodd" d="M30.5326 11.7835C31.6034 12.0718 32.4477 12.9161 32.736 13.9869C33.2715 15.9432 33.2509 20.0207 33.2509 20.0207C33.2509 20.0207 33.2509 24.0775 32.736 26.0338C32.4477 27.1047 31.6034 27.949 30.5326 28.2373C28.5763 28.7521 20.7509 28.7521 20.7509 28.7521C20.7509 28.7521 12.9462 28.7521 10.9693 28.2167C9.89842 27.9284 9.0541 27.0841 8.7658 26.0132C8.25098 24.0775 8.25098 20.0001 8.25098 20.0001C8.25098 20.0001 8.25098 15.9432 8.7658 13.9869C9.0541 12.9161 9.91901 12.0512 10.9693 11.7629C12.9256 11.248 20.7509 11.248 20.7509 11.248C20.7509 11.248 28.5763 11.248 30.5326 11.7835ZM24.7666 20.0001L18.2592 23.748V16.2521L24.7666 20.0001Z" fill="white"/>
</svg>
