<svg width="1028" height="346" viewBox="0 0 1028 346" fill="none" xmlns="http://www.w3.org/2000/svg">
<path d="M30.6 210.9C25.02 210.9 20.01 209.82 15.57 207.66C11.19 205.5 7.74 202.47 5.22 198.57C2.76 194.67 1.53 190.26 1.53 185.34C1.53 180.42 2.76 176.04 5.22 172.2C7.74 168.3 11.19 165.27 15.57 163.11C20.01 160.95 25.02 159.87 30.6 159.87C36.6 159.87 41.73 161.16 45.99 163.74C50.25 166.32 53.19 169.89 54.81 174.45L39.06 182.19C37.14 177.87 34.29 175.71 30.51 175.71C28.11 175.71 26.1 176.55 24.48 178.23C22.92 179.91 22.14 182.28 22.14 185.34C22.14 188.46 22.92 190.86 24.48 192.54C26.1 194.22 28.11 195.06 30.51 195.06C34.29 195.06 37.14 192.9 39.06 188.58L54.81 196.32C53.19 200.88 50.25 204.45 45.99 207.03C41.73 209.61 36.6 210.9 30.6 210.9ZM146.747 147V210H126.137V203.25C121.877 208.71 116.057 211.44 108.677 211.44C101.297 211.44 95.5672 209.01 91.4872 204.15C87.4072 199.29 85.3672 192.39 85.3672 183.45V147H106.607V182.82C106.607 186.66 107.417 189.54 109.037 191.46C110.657 193.32 112.907 194.25 115.787 194.25C118.607 194.25 120.917 193.23 122.717 191.19C124.577 189.09 125.507 186.06 125.507 182.1V147H146.747ZM116.417 143.4C109.457 143.4 104.447 142.11 101.387 139.53C98.3272 136.95 96.7972 133.08 96.7972 127.92H110.927C110.927 129.96 111.317 131.43 112.097 132.33C112.937 133.23 114.377 133.68 116.417 133.68C118.457 133.68 119.897 133.23 120.737 132.33C121.637 131.43 122.087 129.96 122.087 127.92H136.217C136.217 133.08 134.657 136.95 131.537 139.53C128.417 142.11 123.377 143.4 116.417 143.4ZM181.111 210.9C175.651 210.9 170.731 209.82 166.351 207.66C162.031 205.44 158.641 202.41 156.181 198.57C153.721 194.67 152.491 190.26 152.491 185.34C152.491 180.42 153.721 176.04 156.181 172.2C158.641 168.3 162.031 165.27 166.351 163.11C170.731 160.95 175.651 159.87 181.111 159.87C186.631 159.87 191.551 160.95 195.871 163.11C200.251 165.27 203.641 168.3 206.041 172.2C208.501 176.04 209.731 180.42 209.731 185.34C209.731 190.26 208.501 194.67 206.041 198.57C203.641 202.41 200.251 205.44 195.871 207.66C191.551 209.82 186.631 210.9 181.111 210.9ZM181.111 195.06C183.451 195.06 185.371 194.22 186.871 192.54C188.371 190.8 189.121 188.4 189.121 185.34C189.121 182.28 188.371 179.91 186.871 178.23C185.371 176.55 183.451 175.71 181.111 175.71C178.771 175.71 176.851 176.55 175.351 178.23C173.851 179.91 173.101 182.28 173.101 185.34C173.101 188.4 173.851 190.8 175.351 192.54C176.851 194.22 178.771 195.06 181.111 195.06ZM296.014 160.77V210H215.104V160.77H235.354V194.07H245.524V160.77H265.774V194.07H275.854V160.77H296.014ZM328.833 193.62H324.963V210H304.623V160.77H324.963V178.05H329.373L340.173 160.77H361.593L345.753 184.35L362.583 210H338.643L328.833 193.62ZM418.144 160.77V210H398.794V205.32C396.994 207.18 394.894 208.59 392.494 209.55C390.094 210.45 387.544 210.9 384.844 210.9C378.604 210.9 373.594 209.01 369.814 205.23C366.034 201.39 364.144 195.63 364.144 187.95V160.77H384.484V184.44C384.484 187.8 385.024 190.2 386.104 191.64C387.184 193.08 388.774 193.8 390.874 193.8C392.854 193.8 394.504 193.02 395.824 191.46C397.144 189.84 397.804 187.32 397.804 183.9V160.77H418.144ZM426.797 160.77H447.047V178.05H460.907V160.77H481.157V210H460.907V193.98H447.047V210H426.797V160.77ZM514.343 211.62C505.703 211.62 499.283 209.85 495.083 206.31C490.883 202.71 488.783 197.31 488.783 190.11V160.77H509.033V175.26C511.913 173.82 515.813 173.1 520.733 173.1C526.793 173.1 531.563 174.63 535.043 177.69C538.523 180.69 540.263 185.31 540.263 191.55C540.263 198.21 537.923 203.22 533.243 206.58C528.623 209.94 522.323 211.62 514.343 211.62ZM543.233 160.77H563.483V210H543.233V160.77ZM514.253 197.94C517.793 197.94 519.563 195.93 519.563 191.91C519.563 190.11 519.113 188.7 518.213 187.68C517.373 186.66 516.143 186.15 514.523 186.15C512.183 186.15 510.353 186.87 509.033 188.31V192C509.033 193.86 509.453 195.33 510.293 196.41C511.193 197.43 512.513 197.94 514.253 197.94ZM619.516 210L619.426 187.95L608.986 206.13H600.436L590.356 187.5V210H572.086V160.77H593.596L605.296 183.72L618.526 160.77H637.606L637.786 210H619.516Z" fill="#101011"/>
<path d="M30.8828 32.56C37.4228 32.56 43.2428 33.97 48.3428 36.79C53.4428 39.55 57.4328 43.45 60.3128 48.49C63.1928 53.47 64.6328 59.14 64.6328 65.5C64.6328 71.86 63.1928 77.56 60.3128 82.6C57.4328 87.58 53.4428 91.48 48.3428 94.3C43.2428 97.06 37.4228 98.44 30.8828 98.44C24.7628 98.44 19.3028 97.36 14.5028 95.2C9.70281 93.04 5.74281 89.92 2.62281 85.84L16.0328 73.87C19.9328 78.79 24.5228 81.25 29.8028 81.25C32.7428 81.25 35.2328 80.53 37.2728 79.09C39.3728 77.65 40.9328 75.61 41.9528 72.97H22.3328V57.67H41.8628C40.8428 55.15 39.2828 53.2 37.1828 51.82C35.0828 50.44 32.6228 49.75 29.8028 49.75C24.5228 49.75 19.9328 52.21 16.0328 57.13L2.62281 45.16C5.74281 41.08 9.70281 37.96 14.5028 35.8C19.3028 33.64 24.7628 32.56 30.8828 32.56ZM94.9119 80.62H91.0419V97H70.7019V47.77H91.0419V65.05H95.4519L106.252 47.77H127.672L111.832 71.35L128.662 97H104.722L94.9119 80.62ZM156.784 97.9C151.204 97.9 146.194 96.82 141.754 94.66C137.374 92.5 133.924 89.47 131.404 85.57C128.944 81.67 127.714 77.26 127.714 72.34C127.714 67.42 128.944 63.04 131.404 59.2C133.924 55.3 137.374 52.27 141.754 50.11C146.194 47.95 151.204 46.87 156.784 46.87C162.784 46.87 167.914 48.16 172.174 50.74C176.434 53.32 179.374 56.89 180.994 61.45L165.244 69.19C163.324 64.87 160.474 62.71 156.694 62.71C154.294 62.71 152.284 63.55 150.664 65.23C149.104 66.91 148.324 69.28 148.324 72.34C148.324 75.46 149.104 77.86 150.664 79.54C152.284 81.22 154.294 82.06 156.694 82.06C160.474 82.06 163.324 79.9 165.244 75.58L180.994 83.32C179.374 87.88 176.434 91.45 172.174 94.03C167.914 96.61 162.784 97.9 156.784 97.9ZM209.879 80.62H206.009V97H185.669V47.77H206.009V65.05H210.419L221.219 47.77H242.639L226.799 71.35L243.629 97H219.689L209.879 80.62ZM299.91 47.77V87.19C299.91 96.55 297.3 103.57 292.08 108.25C286.92 112.99 279.6 115.36 270.12 115.36C265.26 115.36 260.7 114.82 256.44 113.74C252.24 112.72 248.64 111.22 245.64 109.24L252.48 95.38C254.4 96.82 256.8 97.99 259.68 98.89C262.62 99.79 265.41 100.24 268.05 100.24C272.07 100.24 274.98 99.37 276.78 97.63C278.64 95.89 279.57 93.34 279.57 89.98V89.62C276.03 92.74 271.71 94.3 266.61 94.3C260.37 94.3 255.36 92.41 251.58 88.63C247.8 84.79 245.91 79.03 245.91 71.35V47.77H266.25V67.84C266.25 71.2 266.79 73.6 267.87 75.04C268.95 76.48 270.54 77.2 272.64 77.2C274.62 77.2 276.27 76.42 277.59 74.86C278.91 73.24 279.57 70.72 279.57 67.3V47.77H299.91ZM335.732 46.87C344.132 46.87 350.732 49.15 355.532 53.71C360.332 58.21 362.732 64.45 362.732 72.43C362.732 77.53 361.742 82 359.762 85.84C357.782 89.68 354.962 92.65 351.302 94.75C347.702 96.85 343.532 97.9 338.792 97.9C336.212 97.9 333.962 97.57 332.042 96.91C330.122 96.19 328.442 95.08 327.002 93.58V114.46H306.662V72.61C306.662 67.45 307.862 62.92 310.262 59.02C312.662 55.12 316.052 52.12 320.432 50.02C324.812 47.92 329.912 46.87 335.732 46.87ZM334.652 82.06C337.112 82.06 339.062 81.22 340.502 79.54C341.942 77.8 342.662 75.43 342.662 72.43C342.662 69.49 341.942 67.15 340.502 65.41C339.062 63.61 337.112 62.71 334.652 62.71C332.192 62.71 330.242 63.61 328.802 65.41C327.362 67.15 326.642 69.49 326.642 72.43C326.642 75.43 327.362 77.8 328.802 79.54C330.242 81.22 332.192 82.06 334.652 82.06ZM394.188 97.9C388.608 97.9 383.598 96.82 379.158 94.66C374.778 92.5 371.328 89.47 368.808 85.57C366.348 81.67 365.118 77.26 365.118 72.34C365.118 67.42 366.348 63.04 368.808 59.2C371.328 55.3 374.778 52.27 379.158 50.11C383.598 47.95 388.608 46.87 394.188 46.87C400.188 46.87 405.318 48.16 409.578 50.74C413.838 53.32 416.778 56.89 418.398 61.45L402.648 69.19C400.728 64.87 397.878 62.71 394.098 62.71C391.698 62.71 389.688 63.55 388.068 65.23C386.508 66.91 385.728 69.28 385.728 72.34C385.728 75.46 386.508 77.86 388.068 79.54C389.688 81.22 391.698 82.06 394.098 82.06C397.878 82.06 400.728 79.9 402.648 75.58L418.398 83.32C416.778 87.88 413.838 91.45 409.578 94.03C405.318 96.61 400.188 97.9 394.188 97.9ZM475.902 47.77V97H456.552V92.32C454.752 94.18 452.652 95.59 450.252 96.55C447.852 97.45 445.302 97.9 442.602 97.9C436.362 97.9 431.352 96.01 427.572 92.23C423.792 88.39 421.902 82.63 421.902 74.95V47.77H442.242V71.44C442.242 74.8 442.782 77.2 443.862 78.64C444.942 80.08 446.532 80.8 448.632 80.8C450.612 80.8 452.262 80.02 453.582 78.46C454.902 76.84 455.562 74.32 455.562 70.9V47.77H475.902ZM537.385 47.77V97H518.035V92.32C516.235 94.18 514.135 95.59 511.735 96.55C509.335 97.45 506.785 97.9 504.085 97.9C497.845 97.9 492.835 96.01 489.055 92.23C485.275 88.39 483.385 82.63 483.385 74.95V47.77H503.725V71.44C503.725 74.8 504.265 77.2 505.345 78.64C506.425 80.08 508.015 80.8 510.115 80.8C512.095 80.8 513.745 80.02 515.065 78.46C516.385 76.84 517.045 74.32 517.045 70.9V47.77H537.385Z" fill="#101011"/>
<path d="M58.0968 264.77V314H37.8468V280.61H25.5168V314H5.26677V264.77H58.0968ZM92.1291 314.9C86.6691 314.9 81.7491 313.82 77.3691 311.66C73.0491 309.44 69.6591 306.41 67.1991 302.57C64.7391 298.67 63.5091 294.26 63.5091 289.34C63.5091 284.42 64.7391 280.04 67.1991 276.2C69.6591 272.3 73.0491 269.27 77.3691 267.11C81.7491 264.95 86.6691 263.87 92.1291 263.87C97.6491 263.87 102.569 264.95 106.889 267.11C111.269 269.27 114.659 272.3 117.059 276.2C119.519 280.04 120.749 284.42 120.749 289.34C120.749 294.26 119.519 298.67 117.059 302.57C114.659 306.41 111.269 309.44 106.889 311.66C102.569 313.82 97.6491 314.9 92.1291 314.9ZM92.1291 299.06C94.4691 299.06 96.3891 298.22 97.8891 296.54C99.3891 294.8 100.139 292.4 100.139 289.34C100.139 286.28 99.3891 283.91 97.8891 282.23C96.3891 280.55 94.4691 279.71 92.1291 279.71C89.7891 279.71 87.8691 280.55 86.3691 282.23C84.8691 283.91 84.1191 286.28 84.1191 289.34C84.1191 292.4 84.8691 294.8 86.3691 296.54C87.8691 298.22 89.7891 299.06 92.1291 299.06ZM724.551 280.61H701.781V314H681.531V264.77H724.551V280.61ZM753.101 314.9C747.641 314.9 742.721 313.82 738.341 311.66C734.021 309.44 730.631 306.41 728.171 302.57C725.711 298.67 724.481 294.26 724.481 289.34C724.481 284.42 725.711 280.04 728.171 276.2C730.631 272.3 734.021 269.27 738.341 267.11C742.721 264.95 747.641 263.87 753.101 263.87C758.621 263.87 763.541 264.95 767.861 267.11C772.241 269.27 775.631 272.3 778.031 276.2C780.491 280.04 781.721 284.42 781.721 289.34C781.721 294.26 780.491 298.67 778.031 302.57C775.631 306.41 772.241 309.44 767.861 311.66C763.541 313.82 758.621 314.9 753.101 314.9ZM753.101 299.06C755.441 299.06 757.361 298.22 758.861 296.54C760.361 294.8 761.111 292.4 761.111 289.34C761.111 286.28 760.361 283.91 758.861 282.23C757.361 280.55 755.441 279.71 753.101 279.71C750.761 279.71 748.841 280.55 747.341 282.23C745.841 283.91 745.091 286.28 745.091 289.34C745.091 292.4 745.841 294.8 747.341 296.54C748.841 298.22 750.761 299.06 753.101 299.06ZM814.544 263.87C822.944 263.87 829.544 266.15 834.344 270.71C839.144 275.21 841.544 281.45 841.544 289.43C841.544 294.53 840.554 299 838.574 302.84C836.594 306.68 833.774 309.65 830.114 311.75C826.514 313.85 822.344 314.9 817.604 314.9C815.024 314.9 812.774 314.57 810.854 313.91C808.934 313.19 807.254 312.08 805.814 310.58V331.46H785.474V289.61C785.474 284.45 786.674 279.92 789.074 276.02C791.474 272.12 794.864 269.12 799.244 267.02C803.624 264.92 808.724 263.87 814.544 263.87ZM813.464 299.06C815.924 299.06 817.874 298.22 819.314 296.54C820.754 294.8 821.474 292.43 821.474 289.43C821.474 286.49 820.754 284.15 819.314 282.41C817.874 280.61 815.924 279.71 813.464 279.71C811.004 279.71 809.054 280.61 807.614 282.41C806.174 284.15 805.454 286.49 805.454 289.43C805.454 292.43 806.174 294.8 807.614 296.54C809.054 298.22 811.004 299.06 813.464 299.06ZM872.55 314.9C867.09 314.9 862.17 313.82 857.79 311.66C853.47 309.44 850.08 306.41 847.62 302.57C845.16 298.67 843.93 294.26 843.93 289.34C843.93 284.42 845.16 280.04 847.62 276.2C850.08 272.3 853.47 269.27 857.79 267.11C862.17 264.95 867.09 263.87 872.55 263.87C878.07 263.87 882.99 264.95 887.31 267.11C891.69 269.27 895.08 272.3 897.48 276.2C899.94 280.04 901.17 284.42 901.17 289.34C901.17 294.26 899.94 298.67 897.48 302.57C895.08 306.41 891.69 309.44 887.31 311.66C882.99 313.82 878.07 314.9 872.55 314.9ZM872.55 299.06C874.89 299.06 876.81 298.22 878.31 296.54C879.81 294.8 880.56 292.4 880.56 289.34C880.56 286.28 879.81 283.91 878.31 282.23C876.81 280.55 874.89 279.71 872.55 279.71C870.21 279.71 868.29 280.55 866.79 282.23C865.29 283.91 864.54 286.28 864.54 289.34C864.54 292.4 865.29 294.8 866.79 296.54C868.29 298.22 870.21 299.06 872.55 299.06ZM960.903 264.77V304.19C960.903 313.55 958.293 320.57 953.073 325.25C947.913 329.99 940.533 332.36 930.933 332.36C926.013 332.36 921.423 331.82 917.163 330.74C912.903 329.72 909.273 328.22 906.273 326.24L913.113 312.38C915.033 313.82 917.463 314.99 920.403 315.89C923.343 316.79 926.163 317.24 928.863 317.24C932.943 317.24 935.913 316.37 937.773 314.63C939.633 312.89 940.563 310.34 940.563 306.98V306.08C937.503 309.56 932.973 311.3 926.973 311.3C922.773 311.3 918.843 310.34 915.183 308.42C911.583 306.44 908.703 303.65 906.543 300.05C904.383 296.39 903.303 292.22 903.303 287.54C903.303 282.86 904.383 278.72 906.543 275.12C908.703 271.52 911.583 268.76 915.183 266.84C918.843 264.86 922.773 263.87 926.973 263.87C933.693 263.87 938.553 266.03 941.553 270.35V264.77H960.903ZM932.373 295.46C934.773 295.46 936.753 294.74 938.313 293.3C939.933 291.8 940.743 289.88 940.743 287.54C940.743 285.2 939.933 283.31 938.313 281.87C936.753 280.43 934.773 279.71 932.373 279.71C929.913 279.71 927.873 280.43 926.253 281.87C924.693 283.31 923.913 285.2 923.913 287.54C923.913 289.88 924.723 291.8 926.343 293.3C927.963 294.74 929.973 295.46 932.373 295.46ZM1022.98 264.77V304.19C1022.98 313.55 1020.37 320.57 1015.15 325.25C1009.99 329.99 1002.67 332.36 993.191 332.36C988.331 332.36 983.771 331.82 979.511 330.74C975.311 329.72 971.711 328.22 968.711 326.24L975.551 312.38C977.471 313.82 979.871 314.99 982.751 315.89C985.691 316.79 988.481 317.24 991.121 317.24C995.141 317.24 998.051 316.37 999.851 314.63C1001.71 312.89 1002.64 310.34 1002.64 306.98V306.62C999.101 309.74 994.781 311.3 989.681 311.3C983.441 311.3 978.431 309.41 974.651 305.63C970.871 301.79 968.981 296.03 968.981 288.35V264.77H989.321V284.84C989.321 288.2 989.861 290.6 990.941 292.04C992.021 293.48 993.611 294.2 995.711 294.2C997.691 294.2 999.341 293.42 1000.66 291.86C1001.98 290.24 1002.64 287.72 1002.64 284.3V264.77H1022.98Z" fill="#101011"/>
<path d="M197.005 281.6L215.635 314H191.695L179.635 291.23H173.695V314H152.455V251H173.695V274.49H180.175L193.585 251H215.725L197.005 281.6ZM247.533 263.87C255.933 263.87 262.533 266.15 267.333 270.71C272.133 275.21 274.533 281.45 274.533 289.43C274.533 294.53 273.543 299 271.563 302.84C269.583 306.68 266.763 309.65 263.103 311.75C259.503 313.85 255.333 314.9 250.593 314.9C248.013 314.9 245.763 314.57 243.843 313.91C241.923 313.19 240.243 312.08 238.803 310.58V331.46H218.463V289.61C218.463 284.45 219.663 279.92 222.063 276.02C224.463 272.12 227.853 269.12 232.233 267.02C236.613 264.92 241.713 263.87 247.533 263.87ZM246.453 299.06C248.913 299.06 250.863 298.22 252.303 296.54C253.743 294.8 254.463 292.43 254.463 289.43C254.463 286.49 253.743 284.15 252.303 282.41C250.863 280.61 248.913 279.71 246.453 279.71C243.993 279.71 242.043 280.61 240.603 282.41C239.163 284.15 238.443 286.49 238.443 289.43C238.443 292.43 239.163 294.8 240.603 296.54C242.043 298.22 243.993 299.06 246.453 299.06ZM333.889 264.77V314H314.539V309.95C311.599 313.25 307.099 314.9 301.039 314.9C296.719 314.9 292.729 313.88 289.069 311.84C285.469 309.74 282.589 306.74 280.429 302.84C278.329 298.94 277.279 294.44 277.279 289.34C277.279 284.24 278.329 279.77 280.429 275.93C282.589 272.03 285.469 269.06 289.069 267.02C292.729 264.92 296.719 263.87 301.039 263.87C306.499 263.87 310.669 265.28 313.549 268.1V264.77H333.889ZM305.899 299.06C308.239 299.06 310.159 298.22 311.659 296.54C313.159 294.8 313.909 292.4 313.909 289.34C313.909 286.28 313.159 283.91 311.659 282.23C310.159 280.55 308.239 279.71 305.899 279.71C303.559 279.71 301.639 280.55 300.139 282.23C298.639 283.91 297.889 286.28 297.889 289.34C297.889 292.4 298.639 294.8 300.139 296.54C301.639 298.22 303.559 299.06 305.899 299.06ZM368.087 314.9C362.507 314.9 357.497 313.82 353.057 311.66C348.677 309.5 345.227 306.47 342.707 302.57C340.247 298.67 339.017 294.26 339.017 289.34C339.017 284.42 340.247 280.04 342.707 276.2C345.227 272.3 348.677 269.27 353.057 267.11C357.497 264.95 362.507 263.87 368.087 263.87C374.087 263.87 379.217 265.16 383.477 267.74C387.737 270.32 390.677 273.89 392.297 278.45L376.547 286.19C374.627 281.87 371.777 279.71 367.997 279.71C365.597 279.71 363.587 280.55 361.967 282.23C360.407 283.91 359.627 286.28 359.627 289.34C359.627 292.46 360.407 294.86 361.967 296.54C363.587 298.22 365.597 299.06 367.997 299.06C371.777 299.06 374.627 296.9 376.547 292.58L392.297 300.32C390.677 304.88 387.737 308.45 383.477 311.03C379.217 313.61 374.087 314.9 368.087 314.9ZM396.971 264.77H417.221V282.05H431.081V264.77H451.331V314H431.081V297.98H417.221V314H396.971V264.77ZM485.328 314.9C479.868 314.9 474.948 313.82 470.568 311.66C466.248 309.44 462.858 306.41 460.398 302.57C457.938 298.67 456.708 294.26 456.708 289.34C456.708 284.42 457.938 280.04 460.398 276.2C462.858 272.3 466.248 269.27 470.568 267.11C474.948 264.95 479.868 263.87 485.328 263.87C490.848 263.87 495.768 264.95 500.088 267.11C504.468 269.27 507.858 272.3 510.258 276.2C512.718 280.04 513.948 284.42 513.948 289.34C513.948 294.26 512.718 298.67 510.258 302.57C507.858 306.41 504.468 309.44 500.088 311.66C495.768 313.82 490.848 314.9 485.328 314.9ZM485.328 299.06C487.668 299.06 489.588 298.22 491.088 296.54C492.588 294.8 493.338 292.4 493.338 289.34C493.338 286.28 492.588 283.91 491.088 282.23C489.588 280.55 487.668 279.71 485.328 279.71C482.988 279.71 481.068 280.55 479.568 282.23C478.068 283.91 477.318 286.28 477.318 289.34C477.318 292.4 478.068 294.8 479.568 296.54C481.068 298.22 482.988 299.06 485.328 299.06ZM566.751 314L566.661 291.95L556.221 310.13H547.671L537.591 291.5V314H519.321V264.77H540.831L552.531 287.72L565.761 264.77H584.841L585.021 314H566.751ZM647.097 264.77V304.19C647.097 313.55 644.487 320.57 639.267 325.25C634.107 329.99 626.787 332.36 617.307 332.36C612.447 332.36 607.887 331.82 603.627 330.74C599.427 329.72 595.827 328.22 592.827 326.24L599.667 312.38C601.587 313.82 603.987 314.99 606.867 315.89C609.807 316.79 612.597 317.24 615.237 317.24C619.257 317.24 622.167 316.37 623.967 314.63C625.827 312.89 626.757 310.34 626.757 306.98V306.62C623.217 309.74 618.897 311.3 613.797 311.3C607.557 311.3 602.547 309.41 598.767 305.63C594.987 301.79 593.097 296.03 593.097 288.35V264.77H613.437V284.84C613.437 288.2 613.977 290.6 615.057 292.04C616.137 293.48 617.727 294.2 619.827 294.2C621.807 294.2 623.457 293.42 624.777 291.86C626.097 290.24 626.757 287.72 626.757 284.3V264.77H647.097Z" fill="#9A0809"/>
<path d="M736.332 216.567C736.332 216.567 738.969 198.734 738.585 187.262C738.212 176.106 734.579 158.967 734.579 158.967C734.579 158.967 741.163 160.755 744.845 160.736C748.427 160.717 756.112 158.967 756.112 158.967L761.62 192.062L766.392 158.967C766.392 158.967 771.561 158.967 779.117 158.967C786.673 158.967 795.023 151.749 795.023 151.749C795.023 151.749 792.668 174.635 783.153 197.877C781.162 202.741 768.881 215.809 768.881 215.809L770.884 184.988L773.639 183.978L764.875 205.704H757.865L747.098 183.978H750.854L752.847 216.567H736.332Z" fill="#101011"/>
<path d="M663 162.485C663 162.485 664.558 64.402 686.978 75.9443C699.159 82.2153 709.967 93.5033 709.967 93.5033L706.012 109.306L708.372 107.3L712.933 93.5033C712.933 93.5033 724.02 89.9842 732.956 91.7474C741.855 93.5033 754.462 99.0219 754.462 99.0219C754.462 99.0219 744.268 105.979 736.417 112.818C729.989 118.417 722.08 129.336 722.08 129.336L711.638 122.659C713.09 122.788 714.43 123.153 715.658 123.754C716.887 124.356 718.004 125.086 719.009 125.945C720.014 126.804 720.879 127.749 721.605 128.779L742.844 153.706L704.281 155.211L700.821 138.655C701.323 139.042 700.318 137.968 700.821 138.655C700.318 138.269 700.941 138.074 700.326 137.903C699.712 137.731 700.669 137.401 699.831 137.401L699.159 156.465L663 162.485Z" fill="#101011"/>
<path d="M756.648 153.524C752.072 152.236 750.111 151.929 746.111 149.363C742.112 146.798 735.772 142.205 735.772 142.205C735.772 142.205 725.83 133.059 724.637 129.48C725.83 125.901 736.567 115.959 736.567 115.959L756.053 101.644L773.626 93.9462C773.626 93.9462 790.219 88.3965 792.814 89.7137C803.279 89.7137 797.299 123.412 797.299 123.412L795.056 137.516C795.056 137.516 793.263 147.837 791.817 150.301C790.413 152.766 782.823 153.827 776.333 154.93C768.735 156.222 764.066 155.612 756.648 153.524ZM766.4 133.869C768.101 133.869 761.688 135.733 762.794 134.459C763.899 133.184 766.4 129.204 766.4 126.4C766.4 123.553 766.509 123.454 765.403 122.221C764.297 120.947 760.825 125.106 760.825 125.106L759.174 128.34C759.174 128.34 759.174 128.035 759.174 130.881C759.174 133.686 765.294 129.607 766.4 130.881C767.506 132.156 764.656 133.869 766.4 133.869Z" fill="#9A0809"/>
<path d="M680.898 201.51L685.688 181.31L669.302 184.802L663 165.101C663 165.101 679.654 160.978 690.73 159.614C701.805 158.251 721.058 157.316 721.058 157.316C721.058 157.316 716.284 161.434 716.287 165.101C716.289 169.228 721.058 174.415 721.058 174.415L700.561 178.567C700.561 178.567 698.231 187.762 698.04 193.779C697.776 202.15 701.317 214.977 701.317 214.977C701.317 214.977 697.515 214.304 692.494 211.236C687.474 208.168 680.898 201.51 680.898 201.51Z" fill="#9A0809"/>
<path d="M719.102 215.772C715.659 215.772 712.657 215.117 710.095 213.808C707.534 212.498 705.54 210.618 704.112 208.168C702.685 205.718 701.971 202.824 701.971 199.487C701.971 196.107 702.685 193.214 704.112 190.806C705.54 188.356 706.052 181.541 708.613 180.232C711.175 178.922 715.659 183.202 719.102 183.202C722.545 183.202 728.194 178.922 730.755 180.232C733.316 181.541 732.643 188.356 734.028 190.806C735.456 193.214 736.17 196.107 736.17 199.487C736.17 202.824 735.456 205.718 734.028 208.168C732.643 210.618 730.669 212.498 728.108 213.808C725.547 215.117 722.545 215.772 719.102 215.772ZM719.102 207.471C720.781 207.471 722.167 206.837 723.258 205.57C724.35 204.303 724.896 202.275 724.896 199.487C724.896 196.657 724.35 194.629 723.258 193.404C722.167 192.136 720.781 191.503 719.102 191.503C717.38 191.503 715.974 192.136 714.882 193.404C713.79 194.629 713.244 196.657 713.244 199.487C713.244 202.275 713.79 204.303 714.882 205.57C715.974 206.837 717.38 207.471 719.102 207.471Z" fill="#9A0809"/>
</svg>
