<svg width="1137" height="313" viewBox="0 0 1137 313" fill="none" xmlns="http://www.w3.org/2000/svg">
<path d="M33 186C26.8 186 21.2334 184.8 16.3 182.4C11.4334 180 7.60002 176.633 4.80002 172.3C2.06669 167.967 0.700024 163.067 0.700024 157.6C0.700024 152.133 2.06669 147.267 4.80002 143C7.60002 138.667 11.4334 135.3 16.3 132.9C21.2334 130.5 26.8 129.3 33 129.3C39.6667 129.3 45.3667 130.733 50.1 133.6C54.8334 136.467 58.1 140.433 59.9 145.5L42.4 154.1C40.2667 149.3 37.1 146.9 32.9 146.9C30.2334 146.9 28 147.833 26.2 149.7C24.4667 151.567 23.6 154.2 23.6 157.6C23.6 161.067 24.4667 163.733 26.2 165.6C28 167.467 30.2334 168.4 32.9 168.4C37.1 168.4 40.2667 166 42.4 161.2L59.9 169.8C58.1 174.867 54.8334 178.833 50.1 181.7C45.3667 184.567 39.6667 186 33 186Z" fill="#101011"/>
<path d="M162.257 115V185H139.357V177.5C134.624 183.567 128.157 186.6 119.957 186.6C111.757 186.6 105.39 183.9 100.857 178.5C96.3236 173.1 94.0569 165.433 94.0569 155.5V115H117.657V154.8C117.657 159.067 118.557 162.267 120.357 164.4C122.157 166.467 124.657 167.5 127.857 167.5C130.99 167.5 133.557 166.367 135.557 164.1C137.624 161.767 138.657 158.4 138.657 154V115H162.257ZM128.557 111C120.824 111 115.257 109.567 111.857 106.7C108.457 103.833 106.757 99.5334 106.757 93.8H122.457C122.457 96.0667 122.89 97.7 123.757 98.7C124.69 99.7 126.29 100.2 128.557 100.2C130.824 100.2 132.424 99.7 133.357 98.7C134.357 97.7 134.857 96.0667 134.857 93.8H150.557C150.557 99.5334 148.824 103.833 145.357 106.7C141.89 109.567 136.29 111 128.557 111Z" fill="#101011"/>
<path d="M200.541 186C194.474 186 189.007 184.8 184.141 182.4C179.341 179.933 175.574 176.567 172.841 172.3C170.107 167.967 168.741 163.067 168.741 157.6C168.741 152.133 170.107 147.267 172.841 143C175.574 138.667 179.341 135.3 184.141 132.9C189.007 130.5 194.474 129.3 200.541 129.3C206.674 129.3 212.141 130.5 216.941 132.9C221.807 135.3 225.574 138.667 228.241 143C230.974 147.267 232.341 152.133 232.341 157.6C232.341 163.067 230.974 167.967 228.241 172.3C225.574 176.567 221.807 179.933 216.941 182.4C212.141 184.8 206.674 186 200.541 186ZM200.541 168.4C203.141 168.4 205.274 167.467 206.941 165.6C208.607 163.667 209.441 161 209.441 157.6C209.441 154.2 208.607 151.567 206.941 149.7C205.274 147.833 203.141 146.9 200.541 146.9C197.941 146.9 195.807 147.833 194.141 149.7C192.474 151.567 191.641 154.2 191.641 157.6C191.641 161 192.474 163.667 194.141 165.6C195.807 167.467 197.941 168.4 200.541 168.4Z" fill="#101011"/>
<path d="M328.313 130.3V185H238.413V130.3H260.913V167.3H272.213V130.3H294.713V167.3H305.913V130.3H328.313Z" fill="#101011"/>
<path d="M364.881 166.8H360.581V185H337.981V130.3H360.581V149.5H365.481L377.481 130.3H401.281L383.681 156.5L402.381 185H375.781L364.881 166.8Z" fill="#101011"/>
<path d="M464.218 130.3V185H442.718V179.8C440.718 181.867 438.385 183.433 435.718 184.5C433.052 185.5 430.218 186 427.218 186C420.285 186 414.718 183.9 410.518 179.7C406.318 175.433 404.218 169.033 404.218 160.5V130.3H426.818V156.6C426.818 160.333 427.418 163 428.618 164.6C429.818 166.2 431.585 167 433.918 167C436.118 167 437.952 166.133 439.418 164.4C440.885 162.6 441.618 159.8 441.618 156V130.3H464.218Z" fill="#101011"/>
<path d="M473.934 130.3H496.434V149.5H511.834V130.3H534.334V185H511.834V167.2H496.434V185H473.934V130.3Z" fill="#101011"/>
<path d="M571.31 186.8C561.71 186.8 554.577 184.833 549.91 180.9C545.244 176.9 542.91 170.9 542.91 162.9V130.3H565.41V146.4C568.61 144.8 572.944 144 578.41 144C585.144 144 590.444 145.7 594.31 149.1C598.177 152.433 600.11 157.567 600.11 164.5C600.11 171.9 597.51 177.467 592.31 181.2C587.177 184.933 580.177 186.8 571.31 186.8ZM603.41 130.3H625.91V185H603.41V130.3ZM571.21 171.6C575.144 171.6 577.11 169.367 577.11 164.9C577.11 162.9 576.61 161.333 575.61 160.2C574.677 159.067 573.31 158.5 571.51 158.5C568.91 158.5 566.877 159.3 565.41 160.9V165C565.41 167.067 565.877 168.7 566.81 169.9C567.81 171.033 569.277 171.6 571.21 171.6Z" fill="#101011"/>
<path d="M688.271 185L688.171 160.5L676.571 180.7H667.071L655.871 160V185H635.571V130.3H659.471L672.471 155.8L687.171 130.3H708.371L708.571 185H688.271Z" fill="#101011"/>
<path d="M31.6831 0.400024C38.9498 0.400024 45.4165 1.96669 51.0831 5.10002C56.7498 8.16669 61.1831 12.5 64.3831 18.1C67.5831 23.6334 69.1831 29.9334 69.1831 37C69.1831 44.0667 67.5831 50.4 64.3831 56C61.1831 61.5334 56.7498 65.8667 51.0831 69C45.4165 72.0667 38.9498 73.6 31.6831 73.6C24.8831 73.6 18.8165 72.4 13.4831 70C8.14981 67.6 3.74981 64.1334 0.283142 59.6L15.1831 46.3C19.5165 51.7667 24.6165 54.5 30.4831 54.5C33.7498 54.5 36.5165 53.7 38.7831 52.1C41.1165 50.5 42.8498 48.2334 43.9831 45.3H22.1831V28.3H43.8831C42.7498 25.5 41.0165 23.3334 38.6831 21.8C36.3498 20.2667 33.6165 19.5 30.4831 19.5C24.6165 19.5 19.5165 22.2334 15.1831 27.7L0.283142 14.4C3.74981 9.86669 8.14981 6.40002 13.4831 4.00003C18.8165 1.60002 24.8831 0.400024 31.6831 0.400024Z" fill="#101011"/>
<path d="M102.929 53.8H98.6288V72H76.0288V17.3H98.6288V36.5H103.529L115.529 17.3H139.329L121.729 43.5L140.429 72H113.829L102.929 53.8Z" fill="#101011"/>
<path d="M171.778 73C165.578 73 160.011 71.8 155.078 69.4C150.211 67 146.378 63.6334 143.578 59.3C140.844 54.9667 139.478 50.0667 139.478 44.6C139.478 39.1334 140.844 34.2667 143.578 30C146.378 25.6667 150.211 22.3 155.078 19.9C160.011 17.5 165.578 16.3 171.778 16.3C178.444 16.3 184.144 17.7334 188.878 20.6C193.611 23.4667 196.878 27.4334 198.678 32.5L181.178 41.1C179.044 36.3 175.878 33.9 171.678 33.9C169.011 33.9 166.778 34.8334 164.978 36.7C163.244 38.5667 162.378 41.2 162.378 44.6C162.378 48.0667 163.244 50.7334 164.978 52.6C166.778 54.4667 169.011 55.4 171.678 55.4C175.878 55.4 179.044 53 181.178 48.2L198.678 56.8C196.878 61.8667 193.611 65.8334 188.878 68.7C184.144 71.5667 178.444 73 171.778 73Z" fill="#101011"/>
<path d="M230.874 53.8H226.574V72H203.974V17.3H226.574V36.5H231.474L243.474 17.3H267.274L249.674 43.5L268.374 72H241.774L230.874 53.8Z" fill="#101011"/>
<path d="M331.011 17.3V61.1C331.011 71.5 328.111 79.3 322.311 84.5C316.578 89.7667 308.444 92.4 297.911 92.4C292.511 92.4 287.444 91.8 282.711 90.6C278.044 89.4667 274.044 87.8 270.711 85.6L278.311 70.2C280.444 71.8 283.111 73.1 286.311 74.1C289.578 75.1 292.678 75.6 295.611 75.6C300.078 75.6 303.311 74.6334 305.311 72.7C307.378 70.7667 308.411 67.9334 308.411 64.2V63.8C304.478 67.2667 299.678 69 294.011 69C287.078 69 281.511 66.9 277.311 62.7C273.111 58.4334 271.011 52.0334 271.011 43.5V17.3H293.611V39.6C293.611 43.3334 294.211 46 295.411 47.6C296.611 49.2 298.378 50 300.711 50C302.911 50 304.744 49.1334 306.211 47.4C307.678 45.6 308.411 42.8 308.411 39V17.3H331.011Z" fill="#101011"/>
<path d="M370.915 16.3C380.248 16.3 387.582 18.8334 392.915 23.9C398.248 28.9 400.915 35.8334 400.915 44.7C400.915 50.3667 399.815 55.3334 397.615 59.6C395.415 63.8667 392.282 67.1667 388.215 69.5C384.215 71.8334 379.582 73 374.315 73C371.448 73 368.948 72.6334 366.815 71.9C364.682 71.1 362.815 69.8667 361.215 68.2V91.4H338.615V44.9C338.615 39.1667 339.949 34.1334 342.615 29.8C345.282 25.4667 349.048 22.1334 353.915 19.8C358.782 17.4667 364.448 16.3 370.915 16.3ZM369.715 55.4C372.449 55.4 374.615 54.4667 376.215 52.6C377.815 50.6667 378.615 48.0334 378.615 44.7C378.615 41.4334 377.815 38.8334 376.215 36.9C374.615 34.9 372.449 33.9 369.715 33.9C366.982 33.9 364.815 34.9 363.215 36.9C361.615 38.8334 360.815 41.4334 360.815 44.7C360.815 48.0334 361.615 50.6667 363.215 52.6C364.815 54.4667 366.982 55.4 369.715 55.4Z" fill="#101011"/>
<path d="M435.969 73C429.769 73 424.202 71.8 419.269 69.4C414.402 67 410.569 63.6334 407.769 59.3C405.035 54.9667 403.669 50.0667 403.669 44.6C403.669 39.1334 405.035 34.2667 407.769 30C410.569 25.6667 414.402 22.3 419.269 19.9C424.202 17.5 429.769 16.3 435.969 16.3C442.635 16.3 448.335 17.7334 453.069 20.6C457.802 23.4667 461.069 27.4334 462.869 32.5L445.369 41.1C443.235 36.3 440.069 33.9 435.869 33.9C433.202 33.9 430.969 34.8334 429.169 36.7C427.435 38.5667 426.569 41.2 426.569 44.6C426.569 48.0667 427.435 50.7334 429.169 52.6C430.969 54.4667 433.202 55.4 435.869 55.4C440.069 55.4 443.235 53 445.369 48.2L462.869 56.8C461.069 61.8667 457.802 65.8334 453.069 68.7C448.335 71.5667 442.635 73 435.969 73Z" fill="#101011"/>
<path d="M526.865 17.3V72H505.365V66.8C503.365 68.8667 501.032 70.4334 498.365 71.5C495.698 72.5 492.865 73 489.865 73C482.932 73 477.365 70.9 473.165 66.7C468.965 62.4334 466.865 56.0334 466.865 47.5V17.3H489.465V43.6C489.465 47.3334 490.065 50 491.265 51.6C492.465 53.2 494.232 54 496.565 54C498.765 54 500.598 53.1334 502.065 51.4C503.532 49.6 504.265 46.8 504.265 43V17.3H526.865Z" fill="#101011"/>
<path d="M595.281 17.3V72H573.781V66.8C571.781 68.8667 569.448 70.4334 566.781 71.5C564.114 72.5 561.281 73 558.281 73C551.348 73 545.781 70.9 541.581 66.7C537.381 62.4334 535.281 56.0334 535.281 47.5V17.3H557.881V43.6C557.881 47.3334 558.481 50 559.681 51.6C560.881 53.2 562.648 54 564.981 54C567.181 54 569.014 53.1334 570.481 51.4C571.948 49.6 572.681 46.8 572.681 43V17.3H595.281Z" fill="#101011"/>
<path d="M62.572 237.3V292H40.072V254.9H26.372V292H3.87199V237.3H62.572Z" fill="#101011"/>
<path d="M100.488 293C94.4213 293 88.9546 291.8 84.0879 289.4C79.2879 286.933 75.5213 283.567 72.7879 279.3C70.0546 274.967 68.6879 270.067 68.6879 264.6C68.6879 259.133 70.0546 254.267 72.7879 250C75.5213 245.667 79.2879 242.3 84.0879 239.9C88.9546 237.5 94.4213 236.3 100.488 236.3C106.621 236.3 112.088 237.5 116.888 239.9C121.755 242.3 125.521 245.667 128.188 250C130.921 254.267 132.288 259.133 132.288 264.6C132.288 270.067 130.921 274.967 128.188 279.3C125.521 283.567 121.755 286.933 116.888 289.4C112.088 291.8 106.621 293 100.488 293ZM100.488 275.4C103.088 275.4 105.221 274.467 106.888 272.6C108.555 270.667 109.388 268 109.388 264.6C109.388 261.2 108.555 258.567 106.888 256.7C105.221 254.833 103.088 253.9 100.488 253.9C97.8879 253.9 95.7546 254.833 94.0879 256.7C92.4213 258.567 91.5879 261.2 91.5879 264.6C91.5879 268 92.4213 270.667 94.0879 272.6C95.7546 274.467 97.8879 275.4 100.488 275.4Z" fill="#101011"/>
<path d="M217.221 256L237.921 292H211.321L197.921 266.7H191.321V292H167.721V222H191.321V248.1H198.521L213.421 222H238.021L217.221 256Z" fill="#9A0809"/>
<path d="M273.465 236.3C282.799 236.3 290.132 238.833 295.465 243.9C300.799 248.9 303.465 255.833 303.465 264.7C303.465 270.367 302.365 275.333 300.165 279.6C297.965 283.867 294.832 287.167 290.765 289.5C286.765 291.833 282.132 293 276.865 293C273.999 293 271.499 292.633 269.365 291.9C267.232 291.1 265.365 289.867 263.765 288.2V311.4H241.165V264.9C241.165 259.167 242.499 254.133 245.165 249.8C247.832 245.467 251.599 242.133 256.465 239.8C261.332 237.467 266.999 236.3 273.465 236.3ZM272.265 275.4C274.999 275.4 277.165 274.467 278.765 272.6C280.365 270.667 281.165 268.033 281.165 264.7C281.165 261.433 280.365 258.833 278.765 256.9C277.165 254.9 274.999 253.9 272.265 253.9C269.532 253.9 267.365 254.9 265.765 256.9C264.165 258.833 263.365 261.433 263.365 264.7C263.365 268.033 264.165 270.667 265.765 272.6C267.365 274.467 269.532 275.4 272.265 275.4Z" fill="#9A0809"/>
<path d="M369.519 237.3V292H348.019V287.5C344.752 291.167 339.752 293 333.019 293C328.219 293 323.786 291.867 319.719 289.6C315.719 287.267 312.519 283.933 310.119 279.6C307.786 275.267 306.619 270.267 306.619 264.6C306.619 258.933 307.786 253.967 310.119 249.7C312.519 245.367 315.719 242.067 319.719 239.8C323.786 237.467 328.219 236.3 333.019 236.3C339.086 236.3 343.719 237.867 346.919 241V237.3H369.519ZM338.419 275.4C341.019 275.4 343.152 274.467 344.819 272.6C346.486 270.667 347.319 268 347.319 264.6C347.319 261.2 346.486 258.567 344.819 256.7C343.152 254.833 341.019 253.9 338.419 253.9C335.819 253.9 333.686 254.833 332.019 256.7C330.352 258.567 329.519 261.2 329.519 264.6C329.519 268 330.352 270.667 332.019 272.6C333.686 274.467 335.819 275.4 338.419 275.4Z" fill="#9A0809"/>
<path d="M407.618 293C401.418 293 395.852 291.8 390.918 289.4C386.052 287 382.218 283.633 379.418 279.3C376.685 274.967 375.318 270.067 375.318 264.6C375.318 259.133 376.685 254.267 379.418 250C382.218 245.667 386.052 242.3 390.918 239.9C395.852 237.5 401.418 236.3 407.618 236.3C414.285 236.3 419.985 237.733 424.718 240.6C429.452 243.467 432.718 247.433 434.518 252.5L417.018 261.1C414.885 256.3 411.718 253.9 407.518 253.9C404.852 253.9 402.618 254.833 400.818 256.7C399.085 258.567 398.218 261.2 398.218 264.6C398.218 268.067 399.085 270.733 400.818 272.6C402.618 274.467 404.852 275.4 407.518 275.4C411.718 275.4 414.885 273 417.018 268.2L434.518 276.8C432.718 281.867 429.452 285.833 424.718 288.7C419.985 291.567 414.285 293 407.618 293Z" fill="#9A0809"/>
<path d="M439.815 237.3H462.315V256.5H477.715V237.3H500.215V292H477.715V274.2H462.315V292H439.815V237.3Z" fill="#9A0809"/>
<path d="M538.091 293C532.024 293 526.558 291.8 521.691 289.4C516.891 286.933 513.124 283.567 510.391 279.3C507.658 274.967 506.291 270.067 506.291 264.6C506.291 259.133 507.658 254.267 510.391 250C513.124 245.667 516.891 242.3 521.691 239.9C526.558 237.5 532.024 236.3 538.091 236.3C544.224 236.3 549.691 237.5 554.491 239.9C559.358 242.3 563.124 245.667 565.791 250C568.524 254.267 569.891 259.133 569.891 264.6C569.891 270.067 568.524 274.967 565.791 279.3C563.124 283.567 559.358 286.933 554.491 289.4C549.691 291.8 544.224 293 538.091 293ZM538.091 275.4C540.691 275.4 542.824 274.467 544.491 272.6C546.158 270.667 546.991 268 546.991 264.6C546.991 261.2 546.158 258.567 544.491 256.7C542.824 254.833 540.691 253.9 538.091 253.9C535.491 253.9 533.358 254.833 531.691 256.7C530.024 258.567 529.191 261.2 529.191 264.6C529.191 268 530.024 270.667 531.691 272.6C533.358 274.467 535.491 275.4 538.091 275.4Z" fill="#9A0809"/>
<path d="M628.663 292L628.563 267.5L616.963 287.7H607.463L596.263 267V292H575.963V237.3H599.863L612.863 262.8L627.563 237.3H648.763L648.963 292H628.663Z" fill="#9A0809"/>
<path d="M718.039 237.3V281.1C718.039 291.5 715.139 299.3 709.339 304.5C703.606 309.767 695.472 312.4 684.939 312.4C679.539 312.4 674.472 311.8 669.739 310.6C665.072 309.467 661.072 307.8 657.739 305.6L665.339 290.2C667.473 291.8 670.139 293.1 673.339 294.1C676.606 295.1 679.706 295.6 682.639 295.6C687.106 295.6 690.339 294.633 692.339 292.7C694.406 290.767 695.439 287.933 695.439 284.2V283.8C691.506 287.267 686.706 289 681.039 289C674.106 289 668.539 286.9 664.339 282.7C660.139 278.433 658.039 272.033 658.039 263.5V237.3H680.639V259.6C680.639 263.333 681.239 266 682.439 267.6C683.639 269.2 685.406 270 687.739 270C689.939 270 691.772 269.133 693.239 267.4C694.706 265.6 695.439 262.8 695.439 259V237.3H718.039Z" fill="#9A0809"/>
<path d="M804.304 254.9H779.004V292H756.504V237.3H804.304V254.9Z" fill="#101011"/>
<path d="M836.128 293C830.061 293 824.594 291.8 819.728 289.4C814.928 286.933 811.161 283.567 808.428 279.3C805.694 274.967 804.328 270.067 804.328 264.6C804.328 259.133 805.694 254.267 808.428 250C811.161 245.667 814.928 242.3 819.728 239.9C824.594 237.5 830.061 236.3 836.128 236.3C842.261 236.3 847.728 237.5 852.528 239.9C857.394 242.3 861.161 245.667 863.828 250C866.561 254.267 867.928 259.133 867.928 264.6C867.928 270.067 866.561 274.967 863.828 279.3C861.161 283.567 857.394 286.933 852.528 289.4C847.728 291.8 842.261 293 836.128 293ZM836.128 275.4C838.728 275.4 840.861 274.467 842.528 272.6C844.194 270.667 845.028 268 845.028 264.6C845.028 261.2 844.194 258.567 842.528 256.7C840.861 254.833 838.728 253.9 836.128 253.9C833.528 253.9 831.394 254.833 829.728 256.7C828.061 258.567 827.228 261.2 827.228 264.6C827.228 268 828.061 270.667 829.728 272.6C831.394 274.467 833.528 275.4 836.128 275.4Z" fill="#101011"/>
<path d="M904.5 236.3C913.833 236.3 921.166 238.833 926.5 243.9C931.833 248.9 934.5 255.833 934.5 264.7C934.5 270.367 933.4 275.333 931.2 279.6C929 283.867 925.866 287.167 921.8 289.5C917.8 291.833 913.166 293 907.9 293C905.033 293 902.533 292.633 900.4 291.9C898.266 291.1 896.4 289.867 894.8 288.2V311.4H872.2V264.9C872.2 259.167 873.533 254.133 876.2 249.8C878.866 245.467 882.633 242.133 887.5 239.8C892.366 237.467 898.033 236.3 904.5 236.3ZM903.3 275.4C906.033 275.4 908.2 274.467 909.8 272.6C911.4 270.667 912.2 268.033 912.2 264.7C912.2 261.433 911.4 258.833 909.8 256.9C908.2 254.9 906.033 253.9 903.3 253.9C900.566 253.9 898.4 254.9 896.8 256.9C895.2 258.833 894.4 261.433 894.4 264.7C894.4 268.033 895.2 270.667 896.8 272.6C898.4 274.467 900.566 275.4 903.3 275.4Z" fill="#101011"/>
<path d="M969.053 293C962.987 293 957.52 291.8 952.653 289.4C947.853 286.933 944.087 283.567 941.353 279.3C938.62 274.967 937.253 270.067 937.253 264.6C937.253 259.133 938.62 254.267 941.353 250C944.087 245.667 947.853 242.3 952.653 239.9C957.52 237.5 962.987 236.3 969.053 236.3C975.187 236.3 980.653 237.5 985.453 239.9C990.32 242.3 994.087 245.667 996.753 250C999.487 254.267 1000.85 259.133 1000.85 264.6C1000.85 270.067 999.487 274.967 996.753 279.3C994.087 283.567 990.32 286.933 985.453 289.4C980.653 291.8 975.187 293 969.053 293ZM969.053 275.4C971.653 275.4 973.787 274.467 975.453 272.6C977.12 270.667 977.953 268 977.953 264.6C977.953 261.2 977.12 258.567 975.453 256.7C973.787 254.833 971.653 253.9 969.053 253.9C966.453 253.9 964.32 254.833 962.653 256.7C960.987 258.567 960.153 261.2 960.153 264.6C960.153 268 960.987 270.667 962.653 272.6C964.32 274.467 966.453 275.4 969.053 275.4Z" fill="#101011"/>
<path d="M1067.33 237.3V281.1C1067.33 291.5 1064.43 299.3 1058.63 304.5C1052.89 309.767 1044.69 312.4 1034.03 312.4C1028.56 312.4 1023.46 311.8 1018.73 310.6C1013.99 309.467 1009.96 307.8 1006.63 305.6L1014.23 290.2C1016.36 291.8 1019.06 293.1 1022.33 294.1C1025.59 295.1 1028.73 295.6 1031.73 295.6C1036.26 295.6 1039.56 294.633 1041.63 292.7C1043.69 290.767 1044.73 287.933 1044.73 284.2V283.2C1041.33 287.067 1036.29 289 1029.63 289C1024.96 289 1020.59 287.933 1016.53 285.8C1012.53 283.6 1009.33 280.5 1006.93 276.5C1004.53 272.433 1003.33 267.8 1003.33 262.6C1003.33 257.4 1004.53 252.8 1006.93 248.8C1009.33 244.8 1012.53 241.733 1016.53 239.6C1020.59 237.4 1024.96 236.3 1029.63 236.3C1037.09 236.3 1042.49 238.7 1045.83 243.5V237.3H1067.33ZM1035.63 271.4C1038.29 271.4 1040.49 270.6 1042.23 269C1044.03 267.333 1044.93 265.2 1044.93 262.6C1044.93 260 1044.03 257.9 1042.23 256.3C1040.49 254.7 1038.29 253.9 1035.63 253.9C1032.89 253.9 1030.63 254.7 1028.83 256.3C1027.09 257.9 1026.23 260 1026.23 262.6C1026.23 265.2 1027.13 267.333 1028.93 269C1030.73 270.6 1032.96 271.4 1035.63 271.4Z" fill="#101011"/>
<path d="M1136.4 237.3V281.1C1136.4 291.5 1133.5 299.3 1127.7 304.5C1121.97 309.767 1113.84 312.4 1103.3 312.4C1097.9 312.4 1092.84 311.8 1088.1 310.6C1083.44 309.467 1079.44 307.8 1076.1 305.6L1083.7 290.2C1085.84 291.8 1088.5 293.1 1091.7 294.1C1094.97 295.1 1098.07 295.6 1101 295.6C1105.47 295.6 1108.7 294.633 1110.7 292.7C1112.77 290.767 1113.8 287.933 1113.8 284.2V283.8C1109.87 287.267 1105.07 289 1099.4 289C1092.47 289 1086.9 286.9 1082.7 282.7C1078.5 278.433 1076.4 272.033 1076.4 263.5V237.3H1099V259.6C1099 263.333 1099.6 266 1100.8 267.6C1102 269.2 1103.77 270 1106.1 270C1108.3 270 1110.14 269.133 1111.6 267.4C1113.07 265.6 1113.8 262.8 1113.8 259V237.3H1136.4Z" fill="#101011"/>
<path d="M814.9 199.71C814.9 199.71 818.216 177.288 817.733 162.863C817.264 148.837 812.696 127.287 812.696 127.287C812.696 127.287 820.974 129.535 825.604 129.51C830.108 129.486 839.771 127.287 839.771 127.287L846.697 168.899L852.696 127.287C852.696 127.287 859.196 127.287 868.696 127.287C878.196 127.287 888.696 118.21 888.696 118.21C888.696 118.21 885.734 146.987 873.771 176.21C871.268 182.326 855.826 198.758 855.826 198.758L858.345 160.005L861.808 158.734L850.789 186.052H841.974L828.437 158.734H833.159L835.665 199.71H814.9Z" fill="#101011"/>
<path d="M722.696 131.71C722.696 131.71 724.655 8.38509 752.845 22.8978C768.16 30.7827 781.75 44.9757 781.75 44.9757L776.777 64.8458L779.744 62.3226L785.48 44.9757C785.48 44.9757 799.42 40.551 810.656 42.7679C821.845 44.9757 837.696 51.9145 837.696 51.9145C837.696 51.9145 824.879 60.6625 815.007 69.2614C806.925 76.3011 796.98 90.0301 796.98 90.0301L783.852 81.6349C785.677 81.7969 787.362 82.2559 788.906 83.0119C790.451 83.7679 791.855 84.6859 793.119 85.766C794.383 86.846 795.471 88.034 796.383 89.33L823.088 120.672L774.602 122.564L770.25 101.748C770.882 102.234 769.618 100.884 770.25 101.748C769.618 101.262 770.401 101.017 769.629 100.801C768.856 100.585 770.059 100.171 769.006 100.171L768.16 124.141L722.696 131.71Z" fill="#101011"/>
<path d="M840.444 120.442C834.692 118.823 832.226 118.437 827.196 115.211C822.168 111.985 814.196 106.211 814.196 106.211C814.196 106.211 801.696 94.7108 800.196 90.2108C801.696 85.7108 815.196 73.2108 815.196 73.2108C815.196 73.2108 829.337 61.0116 839.696 55.2108C847.916 50.6081 861.792 45.5326 861.792 45.5326C861.792 45.5326 882.656 38.5546 885.918 40.2108C899.077 40.2108 891.557 82.5818 891.557 82.5818L888.737 100.315C888.737 100.315 886.482 113.292 884.664 116.391C882.9 119.489 873.356 120.823 865.196 122.211C855.643 123.835 849.772 123.069 840.444 120.442ZM852.706 95.7297C854.845 95.7297 846.782 98.0739 848.172 96.4711C849.562 94.8683 852.706 89.8645 852.706 86.3384C852.706 82.7588 852.843 82.6337 851.453 81.0843C850.063 79.4815 845.696 84.7108 845.696 84.7108L843.62 88.7777C843.62 88.7777 843.62 88.3936 843.62 91.9732C843.62 95.4993 851.316 90.3704 852.706 91.9732C854.097 93.576 850.514 95.7297 852.706 95.7297Z" fill="#9A0809"/>
<path d="M745.201 180.778L751.223 155.38L730.62 159.77L722.696 134.999C722.696 134.999 743.637 129.815 757.562 128.1C771.488 126.386 795.696 125.21 795.696 125.21C795.696 125.21 789.693 130.389 789.696 134.999C789.7 140.188 795.696 146.71 795.696 146.71L769.924 151.931C769.924 151.931 766.993 163.492 766.754 171.058C766.421 181.582 770.875 197.71 770.875 197.71C770.875 197.71 766.094 196.864 759.781 193.007C753.468 189.15 745.201 180.778 745.201 180.778Z" fill="#9A0809"/>
<path d="M793.236 198.71C788.907 198.71 785.132 197.887 781.912 196.241C778.691 194.594 776.184 192.23 774.389 189.15C772.594 186.069 771.696 182.431 771.696 178.234C771.696 173.985 772.594 170.347 774.389 167.319C776.184 164.238 776.828 155.67 780.048 154.024C783.269 152.377 788.907 157.758 793.236 157.758C797.565 157.758 804.668 152.377 807.888 154.024C811.109 155.67 810.262 164.238 812.004 167.319C813.799 170.347 814.696 173.985 814.696 178.234C814.696 182.431 813.799 186.069 812.004 189.15C810.262 192.23 807.78 194.594 804.56 196.241C801.34 197.887 797.565 198.71 793.236 198.71ZM793.236 188.273C795.348 188.273 797.09 187.477 798.462 185.883C799.835 184.29 800.521 181.74 800.521 178.234C800.521 174.676 799.835 172.126 798.462 170.586C797.09 168.992 795.348 168.196 793.236 168.196C791.071 168.196 789.303 168.992 787.93 170.586C786.557 172.126 785.871 174.676 785.871 178.234C785.871 181.74 786.557 184.29 787.93 185.883C789.303 187.477 791.071 188.273 793.236 188.273Z" fill="#9A0809"/>
</svg>
