<svg width="94" height="136" viewBox="0 0 94 136" fill="none" xmlns="http://www.w3.org/2000/svg">
<path d="M44.1094 101.611C44.9566 100.548 33.9662 116.717 18.6374 109.932C5.35135 104.051 12.4071 91.0423 11.949 85.2209C11.4908 79.3994 6.38 84.0445 2.82899 80.8236C0.236031 78.4716 1.74353 72.3306 7.93871 71.157C14.8078 69.8557 22.5461 75.4798 20.2588 85.7541C18.0381 95.7293 14.7967 100.802 23.0851 104.221C31.8905 107.854 39.8116 98.1865 39.8116 98.1865" fill="white"/>
<path d="M44.1094 101.611C44.9566 100.548 33.9662 116.717 18.6374 109.932C5.35135 104.051 12.4071 91.0423 11.949 85.2209C11.4908 79.3994 6.38 84.0445 2.82899 80.8236C0.236031 78.4716 1.74353 72.3306 7.93871 71.157C14.8078 69.8557 22.5461 75.4798 20.2588 85.7541C18.0381 95.7293 14.7967 100.802 23.0851 104.221C31.8905 107.854 39.8116 98.1865 39.8116 98.1865L44.1094 101.611Z" fill="white"/>
<path d="M18.6374 109.932C6.61316 104.609 11.2499 93.4505 11.9005 87.0625C11.9685 86.3911 11.9923 85.7737 11.9489 85.221C11.4904 79.3993 6.38098 84.0441 2.82861 80.8233C0.236446 78.4713 1.7432 72.3304 7.93895 71.1559C14.8076 69.8549 22.5467 75.4797 20.2592 85.7533C20.1049 86.4461 19.945 87.1164 19.7861 87.7635C17.6433 96.4256 15.3735 101.04 23.0854 104.221C31.8908 107.853 39.8124 98.1866 39.8124 98.1866L44.1091 101.612C44.9571 100.547 33.9658 116.717 18.6374 109.932Z" fill="white"/>
<path d="M18.6378 109.932C6.61338 104.609 11.2509 93.4497 11.9014 87.0619C11.9681 86.391 11.993 85.7743 11.9501 85.2204C11.4907 79.3997 6.38075 84.0445 2.82904 80.823C1.64911 79.7509 1.31903 77.8921 1.89684 76.076C2.58479 73.9056 4.56819 71.7951 7.93995 71.1558C14.8078 69.8553 22.5475 75.4792 20.2588 85.7534C20.1046 86.4457 19.9454 87.1167 19.7858 87.7632C17.6446 96.4254 15.373 101.04 23.0855 104.221C27.9662 106.233 32.5739 104.162 35.7122 101.915C38.2372 100.108 39.8123 98.1861 39.8123 98.1861L44.1091 101.612C44.9572 100.547 33.9662 116.717 18.6378 109.932Z" fill="#7979CB"/>
<path d="M18.6378 109.933C6.61338 104.61 11.2509 93.4509 11.9014 87.0631C11.9681 86.3921 11.993 85.7755 11.9501 85.2216C11.4907 79.4008 6.38075 84.0457 2.82904 80.8242C1.64911 79.752 1.31903 77.8933 1.89684 76.0771C2.35689 77.4326 3.29005 78.9318 5.17674 79.4236C9.53632 80.5645 13.0755 77.932 14.5027 83.7521C15.929 89.5701 8.12796 98.7584 16.3816 106.303C22.3742 111.781 32.7517 110.318 35.7122 101.916C38.2372 100.109 39.8123 98.1874 39.8123 98.1874L44.1091 101.613C44.9572 100.548 33.9662 116.719 18.6378 109.933Z" fill="#777787"/>
<path d="M14.638 86.2584C14.3352 86.0788 13.9936 86.035 13.5895 86.3444C13.0063 86.7908 12.3565 86.9809 11.9015 87.0631C11.9682 86.3922 11.9931 85.7756 11.9503 85.2216C11.4909 79.4009 6.38088 84.0457 2.82917 80.8242C2.67921 80.6888 2.54264 80.5379 2.42056 80.3773C2.39431 80.3437 2.36806 80.3101 2.34455 80.2742C2.33922 80.2702 2.33658 80.2639 2.33336 80.2591C2.31332 80.2316 2.2939 80.2026 2.2751 80.1721C2.23242 80.1107 2.19305 80.0455 2.15583 79.9794C2.13914 79.9481 2.12034 79.9175 2.10426 79.8847C2.08022 79.8416 2.05829 79.7975 2.03697 79.752C1.92621 79.5263 1.83897 79.2858 1.77343 79.0351C1.76057 78.9861 1.74829 78.9356 1.73666 78.8837C1.72437 78.8332 1.71424 78.7818 1.70407 78.7304C1.69394 78.6791 1.68588 78.6269 1.67782 78.5746C1.66976 78.5224 1.66175 78.4701 1.6558 78.417C1.64836 78.3633 1.64391 78.3108 1.63858 78.2562C1.63413 78.2037 1.6303 78.1497 1.62709 78.0942C1.62475 78.0409 1.62303 77.986 1.62132 77.9311C1.61445 77.7117 1.62405 77.4904 1.64717 77.266C1.65268 77.2107 1.66025 77.1544 1.66783 77.0982C1.6754 77.0419 1.68302 76.9857 1.69266 76.9286C1.71143 76.8158 1.7323 76.7023 1.75828 76.589C1.79603 76.4178 1.84249 76.2467 1.89701 76.0771C2.35705 77.4326 3.29022 78.9318 5.17691 79.4236C9.53649 80.5645 13.0757 77.932 14.5029 83.7521C14.6934 84.5315 14.719 85.3716 14.638 86.2584Z" fill="#F37E1E"/>
<path d="M19.7862 87.7635C19.1564 87.5262 18.5044 86.8675 18.0878 86.5823C17.3734 86.0946 16.9107 87.5929 15.8713 87.2564C15.239 87.0533 14.6161 85.5575 13.5894 86.3429C13.006 86.789 12.3551 86.9801 11.9005 87.0625C11.9685 86.3911 11.9923 85.7737 11.9489 85.221C11.4904 79.3993 6.38098 84.0441 2.82861 80.8233C0.236446 78.4713 1.74319 72.3304 7.93895 71.1559C14.8076 69.8549 22.5467 75.4797 20.2592 85.7533C20.105 86.4461 19.945 87.1164 19.7862 87.7635Z" fill="white"/>
<path d="M14.638 86.2584C14.3352 86.0788 13.9936 86.035 13.5895 86.3444C13.0063 86.7908 12.3565 86.9809 11.9015 87.0631C11.9682 86.3922 11.9931 85.7756 11.9503 85.2216C11.4909 79.4009 6.38088 84.0457 2.82917 80.8242C2.67921 80.6888 2.54264 80.5379 2.42056 80.3773C2.39431 80.3437 2.36806 80.3101 2.34455 80.2742C2.33922 80.2702 2.33658 80.2639 2.33336 80.2591C2.31332 80.2316 2.2939 80.2026 2.2751 80.1721C2.23242 80.1107 2.19305 80.0455 2.15583 79.9794C2.13914 79.9481 2.12034 79.9175 2.10426 79.8847C2.08022 79.8416 2.05829 79.7975 2.03697 79.752C1.92621 79.5263 1.83897 79.2858 1.77343 79.0351C1.76057 78.9861 1.74829 78.9356 1.73666 78.8837C1.72437 78.8332 1.71424 78.7818 1.70407 78.7304C1.69394 78.6791 1.68588 78.6269 1.67782 78.5746C1.66976 78.5224 1.66175 78.4701 1.6558 78.417C1.64836 78.3633 1.64391 78.3108 1.63858 78.2562C1.63413 78.2037 1.6303 78.1497 1.62709 78.0942C1.62475 78.0409 1.62303 77.986 1.62132 77.9311C1.61445 77.7117 1.62405 77.4904 1.64717 77.266C1.65268 77.2107 1.66025 77.1544 1.66783 77.0982C1.6754 77.0419 1.68302 76.9857 1.69266 76.9286C1.71143 76.8158 1.7323 76.7023 1.75828 76.589C1.79541 76.4193 1.84187 76.2482 1.89701 76.0771C1.86601 77.832 3.23196 79.0348 5.07561 79.6692C9.7866 81.2902 13.0757 77.9321 14.5029 83.7521C14.6934 84.5315 14.719 85.3716 14.638 86.2584Z" fill="#DFE8F4"/>
<path d="M26.2185 112.278C23.5832 112.278 20.9468 111.708 18.359 110.562C7.83967 105.906 9.47074 96.9875 10.6619 90.4755C11.0408 88.404 11.3678 86.6152 11.2625 85.2749C11.0541 82.6281 9.97588 82.6717 7.82808 82.7609C6.17142 82.829 4.10853 82.9141 2.36648 81.3342C1.05324 80.143 0.596058 78.1308 1.17343 76.0828C1.98368 73.208 4.46504 71.1134 7.81108 70.4796C11.5442 69.7723 15.4915 71.0151 18.1145 73.7228C21.0139 76.7161 22.0147 81.042 20.9326 85.9038C20.5475 87.6337 20.1253 89.2423 19.7529 90.6614C17.9491 97.5336 17.044 100.983 23.3488 103.584C31.5857 106.983 39.2028 97.8422 39.279 97.7495C39.5203 97.455 39.9546 97.4118 40.2492 97.6531C40.5438 97.8944 40.5868 98.3289 40.3456 98.6234C40.2619 98.7255 38.2595 101.148 35.1216 103.148C30.8927 105.842 26.6402 106.433 22.8228 104.859C15.4044 101.798 16.6036 97.2285 18.419 90.3113C18.7885 88.9039 19.2072 87.3087 19.5865 85.6042C20.5647 81.2102 19.6901 77.3313 17.1241 74.6822C14.8201 72.3037 11.3498 71.2128 8.06784 71.8343C5.24693 72.3687 3.16576 74.0968 2.50045 76.4568C2.06608 77.9979 2.36969 79.4754 3.29286 80.3128C4.61645 81.5133 6.22044 81.447 7.77127 81.3832C9.90405 81.2951 12.3243 81.1956 12.637 85.1667C12.7565 86.6863 12.4144 88.5572 12.0183 90.7236C10.848 97.122 9.39155 105.085 18.9172 109.301C32.5178 115.322 42.5252 102.617 43.4808 101.329C43.5038 101.278 43.5337 101.228 43.5707 101.182C44.0021 100.64 44.516 100.972 44.5377 100.987C44.8356 101.185 44.9274 101.591 44.7552 101.905C44.5313 102.313 41.6582 106.1 37.1324 108.939C33.5905 111.161 29.9058 112.278 26.2185 112.278Z" fill="#000072"/>
<g opacity="0.5">
<path d="M11.4798 75.1756C10.7918 74.9429 9.56329 74.4835 9.33182 73.5264C9.21353 73.0373 9.70739 72.4298 10.5755 72.3798C15.4963 72.0969 19.637 78.7815 18.4139 79.2178C17.4694 79.5547 17.4269 77.1874 11.4798 75.1756Z" fill="white"/>
</g>
<path d="M71.4374 106.527C75.4028 102.782 77.7792 97.8049 77.9259 92.3486C78.3933 83.2582 74.3645 74.7844 70.6133 66.6943C73.2121 70.4453 75.3475 74.5438 76.9915 78.8137C77.9729 81.3972 78.7581 84.103 79.0863 86.8571C80.0909 94.4157 78.1857 102.227 71.4374 106.527Z" fill="#000072"/>
<g opacity="0.25">
<path d="M68.224 60.4855C58.4149 66.8889 45.7654 65.6986 37.625 63.6068C39.2652 59.5746 43.0329 54.9173 51.6937 54.5585C61.1171 54.1679 65.8489 57.304 68.224 60.4855Z" fill="#371B45"/>
</g>
<path d="M54.6465 93.3232C55.0016 98.7738 55.5598 102.032 55.861 105.657C56.5474 111.885 55.5979 125.918 56.6604 130.553C57.1447 132.665 60.7787 134.018 68.9389 133.699C73.5462 133.52 76.1501 132.17 76.589 130.329C77.4828 126.581 73.3538 124.989 73.3538 124.989C73.3538 124.989 77.6033 109.887 78.1378 97.8988" fill="#FFAC40"/>
<path d="M56.1725 125.197C56.2381 127.43 56.3783 129.323 56.6606 130.552C57.1452 132.664 60.7797 134.018 68.9382 133.7C73.5459 133.52 76.1511 132.169 76.5891 130.33C77.4838 126.58 73.3538 124.988 73.3538 124.988C73.3538 124.988 73.359 124.97 73.3693 124.934C73.6434 123.949 77.6235 109.475 78.1387 97.8979L54.6465 93.3223C55.0017 98.7746 55.5603 102.032 55.8617 105.656C56.3663 110.232 55.9863 119.019 56.1725 125.197Z" fill="#FFAC40"/>
<path d="M56.1724 125.196C56.2381 127.429 56.3782 129.322 56.6605 130.551C57.1452 132.663 60.7796 134.017 68.9382 133.699C73.5459 133.519 76.1511 132.168 76.5891 130.329C76.7401 129.694 76.7471 129.122 76.6567 128.608C76.203 126.086 73.3538 124.987 73.3538 124.987C73.3538 124.987 73.359 124.969 73.3693 124.933C73.5919 124.132 76.2671 114.407 77.536 104.576C77.8268 102.319 78.0433 100.059 78.1387 97.8969L54.6465 93.3213C55.0017 98.7736 55.5602 102.031 55.8617 105.655C56.3662 110.231 55.9862 119.018 56.1724 125.196Z" fill="#7979CB"/>
<path d="M56.1725 125.196C56.2381 127.429 56.3783 129.322 56.6606 130.551C57.1452 132.663 60.7797 134.017 68.9382 133.699C73.5459 133.519 76.1512 132.168 76.5891 130.329C76.7402 129.694 76.7471 129.122 76.6568 128.608C74.9964 129.6 70.6116 131.831 62.5045 130.622C56.8804 129.783 59.319 117.954 59.868 115.501C60.8422 111.148 72.9037 113.463 77.536 104.576C77.8268 102.319 78.0433 100.059 78.1387 97.8969L54.6465 93.3213C55.0017 98.7736 55.5602 102.031 55.8617 105.655C56.3662 110.231 55.9863 119.018 56.1725 125.196Z" fill="#777787"/>
<path d="M55.2366 93.2849C55.4748 97.4143 56.0838 101.531 56.4552 105.656C56.8414 109.815 56.7062 114.001 56.7134 118.158C56.7135 121.609 56.6542 125.046 56.9498 128.468C57.0137 129.14 57.0992 129.818 57.2417 130.437C57.3036 130.681 57.4181 130.91 57.5895 131.119C59.5446 133.251 65.2215 133.167 68.0279 133.137C69.385 133.107 70.7265 133.028 72.0438 132.746C73.6349 132.378 75.8005 131.722 76.075 129.892C76.1778 129.231 76.1171 128.55 75.8342 127.95C75.3979 126.986 74.4901 126.226 73.5499 125.733C73.4115 125.66 73.255 125.586 73.1356 125.538C72.853 125.423 72.7063 125.116 72.7854 124.829C74.6117 118.222 75.9145 111.459 76.9693 104.687C77.3152 102.426 77.6077 100.162 77.8429 97.8858C77.8558 97.7196 78.006 97.594 78.1725 97.6147C78.3238 97.6325 78.4349 97.7632 78.4334 97.9121C78.4318 100.222 78.2893 102.531 78.0494 104.828C77.8201 107.125 77.4455 109.403 77.0049 111.668C76.1442 116.204 75.1388 120.691 73.9231 125.149L73.5669 124.437C74.98 125.052 76.2374 126.027 76.9101 127.46C77.2927 128.275 77.3815 129.209 77.2414 130.082C76.9083 132.457 74.3311 133.474 72.2894 133.902C69.4764 134.451 66.6872 134.384 63.8537 134.246C61.3641 134.029 56.8955 133.619 56.0927 130.714C55.7779 129.293 55.7088 127.91 55.6297 126.482C55.3992 120.934 55.6342 115.402 55.5078 109.87C55.4625 107.107 55.1673 104.389 54.8498 101.653C54.5244 98.9053 54.2334 96.1339 54.0571 93.36C54.0304 92.6014 55.1527 92.4863 55.2366 93.2849Z" fill="#000072"/>
<path d="M64.5039 125.131C66.5434 124.372 68.7449 124.033 70.9228 124.089C71.7948 124.121 72.6569 124.239 73.5212 124.421C74.2825 124.594 74.059 125.719 73.2871 125.584C72.4103 125.291 71.499 125.016 70.5683 124.896C68.5589 124.604 66.489 124.679 64.5039 125.131Z" fill="#000072"/>
<path d="M44.6717 99.4232C47.0892 108.435 68.0799 110.158 74.2489 100.084C74.6583 99.416 75.0144 98.7303 75.3231 98.0328C72.6541 101.105 68.0141 104.112 60.071 104.146C45.8639 104.206 45.9131 92.7935 44.4046 85.7613C44.2876 85.2151 44.0935 84.6955 43.8477 84.1992C43.9601 90.4383 43.7713 96.0642 44.6717 99.4232Z" fill="#F8D2B6"/>
<path d="M44.8438 99.9619C47.9333 108.501 68.2074 109.951 74.2527 100.083C75.5538 97.9591 76.3254 95.6685 76.6797 93.2852C74.4621 96.838 69.8193 101.36 60.3752 102.286C52.8282 103.026 47.656 101.332 44.8438 99.9619Z" fill="#F8D2B6"/>
<path d="M44.3103 97.5754C45.373 96.7575 46.4286 95.1834 46.2396 92.1627C45.9333 87.2754 46.0031 83.5304 43.793 81.8545C43.993 87.954 43.7579 93.6811 44.3103 97.5754Z" fill="#F8D2B6"/>
<path d="M34.3287 109.629C37.7948 110.095 41.6367 110.399 45.7992 110.4C56.0785 110.403 64.8107 108.56 71.4367 106.528C75.8184 103.057 77.9775 98.6534 78.5131 93.5499C78.7837 90.9848 78.6439 88.2428 78.1694 85.3538C77.361 80.4232 74.4074 73.2234 70.6139 66.6968C70.6139 66.6968 70.2488 53.7884 51.6944 54.5585C46.6863 54.7664 43.1803 57.141 41.3159 58.2928C36.7972 61.0846 34.1223 64.5831 32.7528 66.6859C32.0004 68.2934 31.2342 70.2043 30.5859 72.3986C29.851 74.8858 29.4383 77.1592 29.207 79.0962C28.8854 80.9739 28.6441 83.1596 28.616 85.5967C28.5971 87.2356 28.6773 88.7527 28.813 90.1275C28.955 91.233 29.2332 93.0497 29.798 95.2491C30.6412 98.5334 31.4608 100.091 32.7528 104.114C33.1497 105.35 33.7287 107.246 34.3287 109.629Z" fill="#7979CB"/>
<path d="M68.224 60.4855C58.4149 66.8889 45.7654 65.6986 37.625 63.6068C39.2652 59.5746 43.0329 54.9173 51.6937 54.5585C61.1171 54.1679 65.8489 57.304 68.224 60.4855Z" fill="#777787"/>
<path d="M78.5146 93.5489C77.9788 98.6528 75.8198 103.057 71.4387 106.528C71.4387 106.528 61.7312 112.682 45.8009 110.399C39.32 109.473 35.9022 103.859 35.9022 103.859C35.1104 102.264 33.3749 98.6489 33.9974 88.0569C34.0722 86.7666 33.9402 83.7389 34.7164 78.2666L40.9786 76.4326C40.9786 76.4326 39.7868 82.1906 40.3797 87.8067C40.6456 90.3478 41.4632 93.5489 43.5985 96.354C46.1928 101.578 51.084 105.098 56.6883 105.098C59.5978 105.098 62.3163 104.149 64.619 102.504C74.0469 100.605 78.5146 93.5489 78.5146 93.5489Z" fill="#777787"/>
<path d="M66.2099 108.818C65.3018 108.988 58.8445 110.248 52.6493 109.037C50.5632 108.629 46.1251 107.709 41.618 104.309C36.9415 100.781 34.69 96.4671 33.7208 94.253C34.1424 97.8815 34.4497 104.784 34.7708 111.74C33.971 109.102 32.8482 105.328 31.5717 100.763C28.6721 90.3979 28.4199 88.2744 28.4199 86.1864C28.4199 79.2544 31.2053 72.0604 32.9507 72.2002C35.9764 72.4426 31.231 94.3475 42.3765 104.319C48.7549 110.024 58.3285 110.024 66.2099 108.818Z" fill="#777787"/>
<path d="M36.4466 60.2498C31.6463 67.9707 28.8996 76.9543 28.8762 86.0417C28.9403 91.7276 30.6265 97.2509 32.6383 102.532C33.9075 105.767 34.8387 109.155 35.4042 112.586C35.4575 112.908 35.2397 113.212 34.9177 113.266C34.5957 113.319 34.2911 113.101 34.2381 112.779C33.868 110.542 33.342 108.329 32.6678 106.166C31.9968 103.981 31.0617 101.877 30.3512 99.6956C28.8845 95.3005 27.7297 90.7239 27.6921 86.0568C27.5878 76.7485 30.5693 67.4812 35.9537 59.9239C36.0478 59.7905 36.2322 59.7588 36.3656 59.853C36.4934 59.9432 36.5268 60.1182 36.4466 60.2498Z" fill="#000072"/>
<path d="M35.6476 127.241C35.7509 129.272 35.653 130.585 36.1639 131.879C37.3149 134.798 40.1467 135.33 48.3253 134.764C52.6859 134.462 53.9306 132.644 54.2485 131.125C54.7623 128.667 53.3686 126.329 53.3686 126.329C53.3686 126.329 53.3685 126.327 53.3684 126.324C53.3908 125.997 54.4226 110.79 54.6979 110.709C55.1358 110.58 60.2354 110.675 66.3042 108.805C66.5336 108.734 59.2283 110.478 51.8587 108.841C49.8711 108.4 45.7992 107.45 41.6154 104.311C36.9409 100.803 34.6896 96.4839 33.7168 94.2549C34.4584 100.622 34.8386 117.066 35.5804 126.194C35.6102 126.563 35.6325 126.911 35.6476 127.241Z" fill="#F77B38"/>
<path d="M66.3064 108.803C60.2372 110.675 55.1372 110.58 54.6999 110.708C54.631 110.728 54.5128 111.703 54.3749 113.153C52.795 112.556 49.6117 111.475 45.9635 110.905C41.2082 110.167 37.2409 111.077 34.7687 111.74C34.4476 104.785 34.1403 97.8824 33.7188 94.2539C34.2033 95.361 35.0085 96.993 36.2771 98.7893C37.3694 100.336 39.1341 102.452 41.616 104.31C45.7967 107.441 49.9552 108.291 52.6472 108.841C58.7448 110.087 63.7442 109.256 65.676 108.917C65.8993 108.878 66.0836 108.843 66.2079 108.819C66.2197 108.815 66.2296 108.813 66.2394 108.813C66.2618 108.81 66.2841 108.807 66.3064 108.803Z" fill="#777787"/>
<path d="M53.373 126.323C53.373 126.325 53.373 126.329 53.373 126.329C53.373 126.329 54.7657 128.665 54.2535 131.124C53.9344 132.643 52.6894 134.461 48.3301 134.762C40.1512 135.33 37.3185 134.798 36.1681 131.878C35.6579 130.584 35.7545 129.272 35.652 127.241C35.6363 126.91 35.6146 126.562 35.585 126.193C35.2639 122.267 35.0137 116.988 34.7715 111.74C37.2437 111.076 41.211 110.166 45.9663 110.905C49.6145 111.474 52.7978 112.556 54.3777 113.153C53.9738 117.486 53.3887 126.077 53.373 126.323Z" fill="#7979CB"/>
<path d="M66.3171 108.799C66.3151 108.801 66.3112 108.801 66.3072 108.803C66.2856 108.807 66.2619 108.809 66.2402 108.813C66.2856 108.803 66.3112 108.799 66.3171 108.799Z" fill="#7979CB"/>
<path d="M36.1667 131.878C37.3177 134.798 40.1495 135.33 48.3281 134.763C52.6886 134.461 53.9334 132.643 54.2513 131.125C54.4528 130.161 54.3611 129.217 54.1745 128.424C54.1674 128.466 54.1603 128.51 54.151 128.552C53.8331 130.071 52.5883 131.889 48.2278 132.19C40.0491 132.757 37.2173 132.225 36.0663 129.305C35.8084 128.651 35.706 127.993 35.6547 127.238C35.6525 127.238 35.6525 127.241 35.6504 127.241C35.7537 129.271 35.6558 130.584 36.1667 131.878Z" fill="#777787"/>
<path d="M33.615 105.03C34.2422 107.164 34.7416 109.349 35.1008 111.537C35.8304 115.913 36.6982 120.33 36.3358 124.813C36.2845 125.301 36.2173 125.992 36.1382 126.483C35.9017 128.226 36.0706 130.035 36.7182 131.669C37.005 132.382 37.4721 133.029 38.1365 133.436C40.6135 134.787 44.6899 134.329 47.5432 134.221C49.4632 134.117 51.8855 133.859 53.1158 132.257C54.2712 130.602 53.7387 128.287 52.856 126.62C52.8027 126.526 52.7782 126.421 52.7792 126.321C52.8154 123.692 52.9446 121.064 53.1679 118.444C53.2792 117.135 53.414 115.827 53.5719 114.522C53.7354 113.217 53.9025 111.913 54.0893 110.612C54.133 110.307 54.396 110.087 54.6958 110.09C56.6396 110.127 58.5902 110.155 60.5283 109.915C62.4791 109.71 64.4069 109.321 66.3055 108.805C63.5893 110.052 60.664 110.834 57.6918 111.173C56.6955 111.289 55.6893 111.367 54.6845 111.325L55.31 110.804C54.8635 113.366 54.5695 115.954 54.3456 118.545C54.1247 121.136 53.9969 123.736 53.9611 126.337L53.878 126.026C54.9997 128.108 55.5285 130.911 54.0654 132.961C53.129 134.213 51.6303 134.821 50.159 135.115C49.3515 135.294 48.4438 135.345 47.6173 135.401C44.8583 135.535 41.9683 135.785 39.2008 135.128C37.1853 134.619 36.0096 133.468 35.3986 131.486C34.7495 129.562 34.7478 127.496 35.0757 125.514C35.3723 123.104 35.2367 120.674 34.9466 118.239C34.3524 113.932 33.7104 109.55 32.4811 105.363C32.2829 104.628 33.3666 104.273 33.615 105.03Z" fill="#000072"/>
<path d="M38.6055 127.001C39.3852 126.163 40.4818 125.659 41.5589 125.313C44.8116 124.318 48.6184 124.707 51.3943 126.742C49.2301 126.274 47.1447 125.935 44.9583 125.973C42.7996 126.02 40.6627 126.22 38.6055 127.001Z" fill="#000072"/>
<path d="M66.8323 127.289C68.5197 127.924 69.4746 129.988 68.986 131.744C68.4769 133.714 66.185 134.532 64.3355 134.276C64.0116 134.231 63.7852 133.932 63.8298 133.608C63.8705 133.311 64.1267 133.097 64.4171 133.097C65.7607 133.026 67.4359 132.778 68.0209 131.422C68.6071 129.977 68.0998 128.262 66.8323 127.289Z" fill="#000072"/>
<path d="M71.9633 126.922C74.9519 128.159 74.9355 132.531 71.8904 133.749C70.9931 134.146 70.0383 134.277 69.1487 134.281C68.8204 134.284 68.5521 134.019 68.5508 133.691C68.5496 133.394 68.7669 133.147 69.0514 133.103C69.8941 132.97 70.6896 132.853 71.4092 132.584C72.1232 132.321 72.7401 131.906 73.068 131.249C73.8006 129.776 73.3429 127.91 71.9633 126.922Z" fill="#000072"/>
<path d="M48.918 127.897C49.9461 129.442 50.5081 131.466 49.8012 133.273C49.564 133.898 49.172 134.463 48.7118 134.948C48.4864 135.186 48.1111 135.196 47.8736 134.97C47.6083 134.723 47.6337 134.283 47.924 134.067C49.9169 132.67 49.8714 129.928 48.918 127.897Z" fill="#000072"/>
<path d="M42.9873 128.544C43.6733 130.353 44.1189 132.486 43.2429 134.323C42.9843 134.797 42.5035 135.677 41.87 135.173C41.5901 134.936 41.6001 134.486 41.8886 134.261C42.2484 133.978 42.5276 133.602 42.7231 133.177C43.3498 131.751 43.2717 130.061 42.9873 128.544Z" fill="#000072"/>
<path d="M64.6182 102.502C62.3154 104.147 59.597 105.097 56.6875 105.097C51.0832 105.097 46.192 101.577 43.5977 96.3525C46.2393 99.8254 50.8961 102.696 59.0139 102.958C61.0468 103.023 62.9123 102.847 64.6182 102.502Z" fill="#DFE8F4"/>
<path d="M71.7583 87.7616C71.7583 93.9884 68.9039 99.4469 64.6194 102.502C62.9135 102.847 61.048 103.022 59.0151 102.957C50.8973 102.695 46.2405 99.8252 43.5989 96.3523C42.3382 93.821 41.6191 90.8878 41.6191 87.7617C41.6191 78.1881 48.366 70.4268 56.6887 70.4268C65.0114 70.4267 71.7583 78.188 71.7583 87.7616Z" fill="white"/>
<path d="M44.0784 116.219V127.463C44.0784 128.438 43.2885 129.228 42.3134 129.228H35.0091C34.034 129.228 33.2441 128.438 33.2441 127.463V116.219C33.2441 115.244 34.034 114.454 35.0091 114.454H42.3134C43.2885 114.454 44.0784 115.244 44.0784 116.219Z" fill="#FF67A0"/>
<g opacity="0.25">
<path d="M44.0784 116.884V127.464C44.0784 128.439 43.2885 129.229 42.3134 129.229H35.0091C34.034 129.229 33.2441 128.439 33.2441 127.464V125.358C37.4853 124.109 41.0212 121.097 44.0784 116.884Z" fill="white"/>
</g>
<path d="M48.3377 102.606C48.2668 102.651 48.1939 102.694 48.117 102.734C48.4696 103.362 48.6528 104.004 48.6824 104.656C48.7218 105.513 48.2372 106.315 47.4748 106.713C46.5076 107.219 45.4439 107.558 44.2856 107.727C40.9624 108.212 37.6314 106.662 35.9136 103.778C35.0587 102.344 34.4028 100.626 33.9044 98.6895C32.5924 93.5875 32.3836 86.9747 32.5786 80.0703C32.6535 77.3361 32.7914 74.5566 32.9489 71.8066L46.9351 73.1855C46.9213 73.7312 46.9094 74.2729 46.8976 74.8146C46.8543 76.8613 46.8189 78.8746 46.8011 80.8326C46.7479 86.2596 46.8188 91.265 47.1321 95.4451L47.134 95.4471C49.4191 98.1162 50.4277 101.294 48.3377 102.606Z" fill="#7979CB"/>
<path d="M48.3388 102.606C48.0788 102.188 47.738 101.849 47.279 101.668C46.1818 101.235 44.795 102.178 44.793 103.358C45.7267 103.057 46.8614 103.551 47.2337 104.46C47.606 105.368 47.1056 106.548 46.1798 106.871C45.7011 107.036 45.1791 106.987 44.6768 106.934C43.3471 106.79 41.9899 106.617 40.7922 106.018C39.4448 105.346 38.3949 104.176 37.6443 102.872C36.8958 101.566 36.421 100.124 35.9936 98.6799C35.8596 98.2229 35.7276 97.7659 35.6016 97.3089C38.909 95.1164 43.3097 94.6712 47.1352 95.4473C49.4202 98.1165 50.4288 101.294 48.3388 102.606Z" fill="white"/>
<path d="M47.4748 106.713C46.5076 107.219 45.4438 107.558 44.2855 107.727C40.9624 108.212 37.6313 106.662 35.9136 103.778C35.0587 102.344 34.4027 100.626 33.9043 98.6895C34.4263 98.1675 34.9956 97.7085 35.6004 97.3086C35.7264 97.7656 35.8584 98.2226 35.9924 98.6797C36.4198 100.124 36.8946 101.566 37.6431 102.872C38.3937 104.176 39.4436 105.346 40.791 106.017C41.9887 106.616 43.346 106.79 44.6756 106.933C45.1779 106.987 45.6999 107.036 46.1786 106.87C47.1045 106.547 47.6048 105.367 47.2325 104.459C46.8602 103.551 45.7255 103.057 44.7918 103.358C44.7938 102.178 46.1806 101.235 47.2778 101.668C47.7368 101.849 48.0776 102.188 48.3376 102.606C48.3159 102.619 48.2923 102.635 48.2687 102.649C48.2194 102.679 48.1702 102.706 48.117 102.734C48.4696 103.362 48.6528 104.004 48.6823 104.656C48.7217 105.513 48.2371 106.315 47.4748 106.713Z" fill="#DFE8F4"/>
<path d="M32.8544 79.3701C33.0652 85.4294 33.9891 91.4632 35.6004 97.3078C34.9957 97.7077 34.4264 98.1667 33.9044 98.6887C32.5924 93.5867 32.3836 86.9738 32.5786 80.0694C32.6357 80.0438 32.6968 80.0241 32.7618 80.0103L32.8544 79.3701Z" fill="#777787"/>
<path d="M46.6046 73.3125C44.4828 80.4006 44.2223 88.2266 47.0015 95.0837C46.795 89.2996 46.5886 83.5049 46.9372 77.7277C47.015 76.4385 47.1134 75.1005 46.6465 73.8963L46.6046 73.3125Z" fill="#777787"/>
<path d="M47.5275 73.1998C47.3704 80.5958 47.2125 88.0253 47.723 95.4011L47.5824 95.0606C49.1414 96.9089 51.1421 100.154 49.3972 102.455C49.1157 102.799 48.7606 103.067 48.3897 103.259L48.6345 102.445C49.5875 104.06 49.6382 106.249 47.7988 107.248C44.2393 109.185 39.6067 108.805 36.7054 105.824C32.1761 101.019 31.9886 90.664 31.9963 84.3467C32.0748 80.1499 32.1212 75.9358 32.9506 71.8066C33.3048 76.0149 32.9568 80.1764 33.0391 84.3457C33.1969 90.4449 33.3494 96.9136 35.9578 102.517C36.8016 104.317 38.1725 105.758 39.9977 106.523C42.2361 107.515 44.8778 107.301 47.0485 106.229C48.3991 105.644 48.2098 104.112 47.6028 103.022C47.4477 102.738 47.5478 102.383 47.8257 102.221C48.9913 101.661 49.056 100.373 48.6881 99.2333C48.3001 97.9843 47.5362 96.8334 46.685 95.8297C46.5996 95.7307 46.553 95.6104 46.5444 95.4891C46.2744 91.7626 46.2056 88.0387 46.1969 84.3194C46.192 80.6001 46.2575 76.8845 46.3459 73.1713C46.3777 72.4145 47.5192 72.3979 47.5275 73.1998Z" fill="#000072"/>
<path d="M47.519 102.821C47.1307 101.781 45.8417 101.824 45.2045 102.612C44.9722 102.887 44.8237 103.277 44.7715 103.719C44.2467 102.213 45.8124 100.727 47.3192 101.299C47.8317 101.478 48.2735 101.862 48.5514 102.353C48.926 103.079 47.8191 103.582 47.519 102.821Z" fill="#000072"/>
<path d="M44.833 103.031C45.2504 103.301 45.4233 103.803 45.5706 104.254C45.7379 104.765 45.8518 105.316 45.9458 105.846C46.1348 106.912 46.2062 108.005 46.16 109.087C46.1133 110.177 45.968 111.265 45.7912 112.341C45.6342 113.297 45.5319 114.465 46.4163 115.117C47.1676 115.671 48.2237 115.414 48.8593 114.811C49.5847 114.122 49.8904 113.053 50.0315 112.093C50.1946 110.985 50.1553 109.856 50.0303 108.746C49.9215 107.779 49.7898 106.805 49.5489 105.862C49.2828 104.819 48.8697 103.806 48.2466 102.924C47.6334 102.056 46.6892 101.212 45.5462 101.488C45.1159 101.592 45.2983 102.249 45.7288 102.15C46.6188 101.947 47.3879 102.819 47.8361 103.47C48.3407 104.203 48.6684 105.046 48.8983 105.901C49.1291 106.76 49.2621 107.638 49.3379 108.523C49.4241 109.528 49.501 110.541 49.4072 111.549C49.3249 112.432 49.1182 113.474 48.5209 114.167C48.0113 114.757 46.9518 115.047 46.5207 114.205C46.3048 113.783 46.3344 113.282 46.3984 112.827C46.4682 112.33 46.5564 111.837 46.6211 111.339C46.7486 110.361 46.8032 109.373 46.7954 108.386C46.7867 107.281 46.6707 106.179 46.3827 105.11C46.2446 104.597 46.0523 104.093 45.8242 103.613C45.6368 103.218 45.3737 102.89 44.9632 102.722C44.7789 102.647 44.6801 102.932 44.833 103.031Z" fill="#000072"/>
<path d="M44.7532 103.02C44.7142 103.179 44.8451 103.279 44.9329 103.399C45.0378 103.542 45.1389 103.689 45.2339 103.839C45.4331 104.154 45.6028 104.489 45.7354 104.837C45.8621 105.17 45.959 105.515 46.0235 105.865C46.0568 106.046 46.0806 106.228 46.0949 106.412C46.1086 106.588 46.1016 106.744 46.2022 106.897C46.2403 106.955 46.3198 106.955 46.3577 106.897C46.459 106.741 46.4461 106.59 46.4328 106.412C46.4184 106.219 46.3943 106.027 46.362 105.837C46.2971 105.454 46.1936 105.079 46.0536 104.717C45.9198 104.371 45.7569 104.036 45.5621 103.72C45.4609 103.556 45.351 103.399 45.231 103.248C45.1361 103.129 45.0278 102.926 44.8555 102.942C44.8096 102.947 44.765 102.972 44.7532 103.02Z" fill="#000072"/>
<path d="M36.2201 103.45C35.872 104.305 35.8386 105.321 35.8341 106.236C35.8295 107.185 35.9305 108.138 36.1029 109.072C36.4481 110.942 37.1145 112.75 38.0583 114.4C38.1655 114.587 38.4693 114.649 38.6197 114.472C39.4764 113.467 39.8473 112.21 40.171 110.954C40.3314 110.332 40.4726 109.713 40.7444 109.13C40.8785 108.843 40.9844 108.548 41.1371 108.268C41.298 107.974 41.5337 107.719 41.6037 107.386C41.6701 107.071 41.3653 106.851 41.0828 106.986C40.7722 107.134 40.6095 107.437 40.4491 107.729C40.2922 108.015 40.1615 108.316 40.0449 108.62C39.9309 108.917 39.8846 109.24 39.7962 109.546C39.7063 109.858 39.6244 110.172 39.5442 110.486C39.2355 111.697 38.9462 112.992 38.1141 113.967C38.3013 113.991 38.4884 114.015 38.6756 114.039C37.7698 112.452 37.1411 110.724 36.8058 108.927C36.6399 108.038 36.5519 107.139 36.5161 106.236C36.48 105.322 36.5842 104.396 36.503 103.488C36.4881 103.321 36.2816 103.299 36.2201 103.45Z" fill="#000072"/>
<path d="M42.3152 129.819H35.0096C33.7108 129.819 32.6543 128.763 32.6543 127.464V116.219C32.6543 114.92 33.7108 113.863 35.0096 113.863H42.3152C43.614 113.863 44.6705 114.92 44.6705 116.219V127.464C44.6705 128.763 43.6141 129.819 42.3152 129.819ZM35.0097 115.045C34.3626 115.045 33.8362 115.572 33.8362 116.219V127.464C33.8362 128.111 34.3626 128.637 35.0097 128.637H42.3152C42.9623 128.637 43.4887 128.111 43.4887 127.464V116.219C43.4887 115.572 42.9623 115.045 42.3152 115.045H35.0097Z" fill="#000072"/>
<path d="M38.6446 126.17C39.974 126.168 41.0501 124.966 41.0482 123.484C41.0462 122.002 39.967 120.803 38.6376 120.804C37.3082 120.806 36.232 122.009 36.234 123.49C36.2359 124.972 37.3151 126.172 38.6446 126.17Z" fill="white"/>
<path d="M40.8768 120.977C41.3651 120.976 41.7605 120.534 41.7598 119.99C41.7592 119.446 41.3628 119.005 40.8744 119.006C40.3861 119.006 39.9908 119.448 39.9914 119.992C39.9921 120.536 40.3885 120.977 40.8768 120.977Z" fill="white"/>
<path d="M36.2344 121.367C36.7227 121.366 37.118 120.925 37.1173 120.381C37.1166 119.836 36.7202 119.396 36.2318 119.396C35.7435 119.397 35.3482 119.839 35.3489 120.383C35.3496 120.927 35.7461 121.368 36.2344 121.367Z" fill="white"/>
<path d="M38.4271 120.389C38.969 120.388 39.4077 119.898 39.4069 119.294C39.4062 118.69 38.9663 118.201 38.4245 118.202C37.8826 118.203 37.4439 118.693 37.4447 119.297C37.4454 119.9 37.8852 120.389 38.4271 120.389Z" fill="white"/>
<path d="M92.0923 102.268C91.9702 108.55 77.6728 113.896 68.964 114.491C66.7124 114.644 64.6007 113.399 63.6611 111.349C63.4523 110.894 63.2455 110.439 63.0426 109.986C59.2958 101.677 56.2662 93.6159 58.6754 91.7761C63.3735 87.0188 73.3135 84.4659 83.5746 82.0488C85.3711 84.5525 87.0278 87.5152 88.4579 90.7754C89.8762 94.0119 91.0739 97.5399 91.9623 101.202C92.047 101.551 92.1002 101.909 92.0923 102.268Z" fill="#39A1FF"/>
<path d="M92.0908 102.268C91.9686 108.55 77.6713 113.896 68.9624 114.491C66.7109 114.644 64.5992 113.399 63.6596 111.349C63.4508 110.894 63.2439 110.439 63.041 109.986V109.954C64.1934 111.372 66.3288 111.82 68.0228 111.132C69.7169 110.447 70.9087 108.75 71.1569 106.938C72.2896 108.546 72.0945 110.953 70.7196 112.357C72.6776 111.892 74.6436 111.424 76.5346 110.728C78.1105 110.147 79.7278 109.316 80.5295 107.84C81.5598 105.943 80.7383 103.276 78.8216 102.287C76.1741 100.922 72.7367 102.699 70.0439 101.425L70.2488 101.34C69.6736 101.062 69.2244 100.532 69.0432 99.9195C75.859 98.7534 82.068 95.2824 87.7058 91.2816C87.9461 91.1123 88.1963 90.9369 88.4563 90.7754C89.8746 94.0119 91.0723 97.5399 91.9607 101.202C92.0455 101.551 92.0986 101.909 92.0908 102.268Z" fill="#3B7CFF"/>
<path d="M68.5965 115.093C66.265 115.093 64.1006 113.725 63.1241 111.594C57.3752 99.0496 55.9678 93.1676 58.2821 91.3333C62.996 86.5866 72.4648 84.0588 83.4386 81.4729C83.6714 81.4177 83.9149 81.5093 84.0542 81.7037C87.7406 86.8428 90.7527 93.7178 92.5352 101.062C92.642 101.502 92.6904 101.9 92.6831 102.278C92.6229 105.331 89.5386 108.445 83.998 111.046C79.4411 113.185 73.5551 114.768 69.0027 115.079C68.867 115.088 68.7313 115.093 68.5965 115.093ZM83.3224 82.7148C72.6736 85.2312 63.5256 87.7048 59.0958 92.1914C59.0762 92.211 59.0556 92.2293 59.0336 92.246C56.4581 94.2114 62.284 106.924 64.1984 111.102C65.0278 112.912 66.9243 114.037 68.9222 113.9C73.3402 113.598 79.0607 112.058 83.4959 109.976C88.6074 107.577 91.4505 104.834 91.5012 102.255C91.5068 101.98 91.4692 101.681 91.3866 101.341C89.6762 94.2935 86.8186 87.6974 83.3224 82.7148Z" fill="#000072"/>
<path d="M57.9219 92.5215C58.0361 92.4014 58.1484 92.2851 58.2587 92.1748C58.1267 92.3481 58.0144 92.5196 57.9219 92.6889V92.5215Z" fill="#FEDA24"/>
<path d="M89.8781 95.4435C85.0145 98.8671 78.5238 100.786 71.7041 100.805C70.7192 100.809 69.7933 100.394 69.1354 99.6906C68.9641 99.5093 68.8104 99.3104 68.6804 99.0937C65.2646 93.4559 63.7537 86.6736 58.2598 92.1755C60.1213 89.7328 65.8024 86.9022 71.6884 84.8102C77.4542 82.7635 83.4151 81.4259 86.1748 81.8573C86.6201 81.9263 87.0101 82.1863 87.2445 82.5704C90.6089 88.0939 92.7423 93.3436 89.8781 95.4435Z" fill="#FEDA24"/>
<path d="M89.8775 95.4444C85.0139 98.8681 78.5231 100.787 71.7034 100.806C70.7185 100.81 69.7927 100.395 69.1348 99.6915C68.8058 99.1478 68.5654 98.5529 68.4492 97.9127C69.446 98.6357 70.8288 98.7834 71.9536 98.287C73.0804 97.7906 73.9038 96.6677 74.0417 95.4465C74.1382 94.6092 73.9314 93.7701 73.7186 92.9546C73.0331 90.3425 72.2511 87.7561 71.3745 85.2012L71.6877 84.8111C77.4536 82.7645 83.4144 81.4269 86.1742 81.8583C86.6194 81.9272 87.0094 82.1873 87.2438 82.5714C90.6083 88.0948 92.7417 93.3445 89.8775 95.4444Z" fill="#F7A42B"/>
<path d="M71.6941 101.397C70.2686 101.397 68.9207 100.633 68.1739 99.4004C67.5004 98.2882 66.9088 97.1497 66.3368 96.0488C64.9203 93.3229 63.6971 90.9688 62.1089 90.7476C61.1756 90.6178 60.0585 91.2146 58.7011 92.5699C58.6007 92.706 58.5141 92.8404 58.4418 92.9729C58.2852 93.2594 57.9261 93.3643 57.6397 93.2081C57.4173 93.0866 57.304 92.8428 57.338 92.6057C57.3137 92.4341 57.3648 92.2535 57.493 92.1176C57.6022 92.0018 57.7106 91.8898 57.8182 91.7819C60.3251 88.5479 68.2016 85.4604 70.6797 84.5488C76.102 82.5538 83.0241 80.7666 86.2661 81.2736C86.8841 81.37 87.4245 81.7308 87.7488 82.2636C90.5451 86.8554 93.8445 93.2673 90.2269 95.92C85.2343 99.4334 78.6603 101.376 71.7061 101.397C71.7023 101.397 71.6982 101.397 71.6941 101.397ZM62.4414 89.6055C64.5355 90.0181 65.859 92.5658 67.3856 95.5038C67.9488 96.5879 68.5314 97.7089 69.185 98.788C69.7185 99.6691 70.6796 100.216 71.6942 100.216C71.6969 100.216 71.6997 100.216 71.7027 100.216C78.4167 100.195 84.7505 98.3287 89.5373 94.9602C91.6258 93.4287 90.6873 89.3614 86.7392 82.8782C86.5962 82.6433 86.3573 82.484 86.0838 82.4414C81.6888 81.7554 69.107 85.681 62.4414 89.6055Z" fill="#000072"/>
<path d="M68.5104 97.8726C70.3785 101.275 74.1339 110.088 70.1794 112.975C70.5726 112.43 70.8544 111.849 71.0184 111.235C71.808 108.075 70.5363 104.782 69.3471 101.867C68.8254 100.669 68.2693 99.4836 67.6486 98.3303C67.3571 97.7579 68.1931 97.3043 68.5104 97.8726Z" fill="#000072"/>
<path d="M65.7323 89.5141C66.1583 89.9819 66.5746 90.4485 66.9283 90.9751C67.273 91.4884 67.5736 92.0267 67.8525 92.5782C68.4045 93.6697 68.8816 94.8076 69.5593 95.8303C70.1931 96.7868 70.988 97.6606 72.0215 98.1908C73.2456 98.8188 74.6167 98.7704 75.941 98.5661C76.7694 98.4383 77.5942 98.2729 78.4104 98.0829C78.8238 97.9867 79.2389 97.8951 79.6455 97.773C80.0106 97.6633 80.4008 97.5832 80.7023 97.3415C80.7834 97.2765 80.7418 97.1143 80.6382 97.0985C80.3175 97.0494 80.0214 97.1328 79.7062 97.1941C79.3232 97.2687 78.9438 97.3555 78.5626 97.4382C77.8709 97.5883 77.1757 97.7265 76.4794 97.8539C75.1626 98.0947 73.7411 98.2986 72.4735 97.7386C70.3147 96.7849 69.3831 94.2735 68.3758 92.3238C67.7863 91.1827 67.0814 89.9128 65.9533 89.2278C65.7713 89.1173 65.5957 89.3642 65.7323 89.5141Z" fill="#000072"/>
<path d="M62.9712 94.0813C62.5279 94.8259 61.9665 95.3637 61.3007 95.7183C60.8811 95.9408 60.3611 95.8266 60.0656 95.4543C53.9747 87.7403 48.7684 79.9927 44.742 72.198C43.759 70.297 42.847 68.3941 42.0098 66.4873H45.3585C46.2942 68.1558 47.2634 69.8263 48.2661 71.4967C52.5525 78.6395 57.4536 85.8 62.9062 92.9782C63.1504 93.2973 63.176 93.7366 62.9712 94.0813Z" fill="#FEDA24"/>
<path d="M48.2661 71.4967C47.8543 71.4002 47.4309 71.3647 47.0113 71.3923C46.1997 71.4455 45.4078 71.7331 44.742 72.198C43.759 70.297 42.847 68.3941 42.0098 66.4873H45.3585C46.2942 68.1558 47.2634 69.8263 48.2661 71.4967Z" fill="#F7A42B"/>
<path d="M60.8428 96.4227C60.3725 96.4227 59.9108 96.2114 59.6014 95.8195C51.4864 85.5423 45.5549 76.0252 41.4679 66.7242C41.3877 66.5415 41.4049 66.3305 41.5141 66.1634C41.6232 65.9963 41.8094 65.8955 42.0089 65.8955H45.3577C45.5715 65.8955 45.7687 66.011 45.8732 66.1975C50.6684 74.7553 56.5573 83.6449 63.3762 92.6198C63.768 93.1355 63.8082 93.8273 63.4783 94.3822C62.9912 95.2026 62.3517 95.8275 61.5778 96.2392C61.3449 96.363 61.0926 96.4227 60.8428 96.4227ZM42.9187 67.0774C46.9505 76.0229 52.7183 85.1954 60.529 95.0871C60.6468 95.2361 60.8586 95.2831 61.0227 95.1957C61.6108 94.8828 62.0818 94.4192 62.4622 93.7786C62.5437 93.6416 62.5328 93.4633 62.4351 93.3348C55.6633 84.4222 49.8024 75.5895 45.0117 67.0773L42.9187 67.0774Z" fill="#000072"/>
<path d="M85.151 100.961C84.1661 101.749 82.1273 101.717 81.0143 100.961C77.5374 100.878 75.4179 96.8319 73.8203 91.7712C71.8898 85.6489 70.7256 78.0452 68.8483 74.1842C68.5863 73.6405 68.3086 73.1717 68.0131 72.7915L66.2402 65.109L74.3167 64.124C78.55 67.3881 84.8595 79.2645 87.1426 88.7238C87.5346 90.3489 87.8084 91.9012 87.9305 93.3254C88.2614 97.1254 87.5286 100.021 85.151 100.961Z" fill="#7979CB"/>
<g opacity="0.6">
<path d="M87.9305 93.3254C87.8084 91.9012 87.5346 90.349 87.1426 88.7238C84.8595 79.2645 78.55 67.3881 74.3167 64.124L66.2402 65.109L66.3017 65.3753L73.3318 64.518C77.5651 67.7821 83.8745 79.6585 86.1576 89.1178C86.5496 90.7429 86.8234 92.2952 86.9456 93.7194C87.2765 97.5193 86.5437 100.415 84.1661 101.355C84.1235 101.389 84.0765 101.419 84.0302 101.45C84.4628 101.359 84.855 101.197 85.151 100.961C87.5287 100.021 88.2614 97.1253 87.9305 93.3254Z" fill="white"/>
</g>
<path d="M87.144 88.7231C87.536 90.3463 87.8079 91.8986 87.932 93.3228C87.93 93.3169 87.9261 93.3109 87.9241 93.3051C87.9379 94.5619 87.6365 95.8206 87.0573 96.9355C86.8761 97.2822 86.6535 97.6309 86.3088 97.8181C85.964 98.0052 85.4696 97.9658 85.2509 97.6408C85.2313 98.48 84.6186 99.2718 83.8129 99.5003C83.0053 99.7288 82.0676 99.3782 81.6106 98.675C80.6099 99.0965 79.4851 98.3834 78.7898 97.5502C77.7339 96.2894 77.139 94.7135 76.6387 93.1494C76.3077 92.1152 76.0083 91.0693 75.7227 90.0193C79.1759 87.4073 83.8051 86.5267 87.144 88.7231Z" fill="white"/>
<path d="M85.151 100.961C84.1661 101.749 82.1273 101.718 81.0143 100.961C77.5374 100.878 75.4179 96.8323 73.8203 91.7717C74.3935 91.1256 75.0337 90.5386 75.7212 90.0205C76.0069 91.0705 76.3062 92.1165 76.6372 93.1506C77.1376 94.7147 77.7324 96.2906 78.7883 97.5513C79.4837 98.3846 80.6085 99.0977 81.6092 98.6761C82.0662 99.3794 83.0038 99.73 83.8115 99.5015C84.6172 99.273 85.2298 98.4811 85.2495 97.6419C85.4682 97.9669 85.9626 98.0064 86.3073 97.8192C86.652 97.6321 86.8747 97.2834 87.0559 96.9367C87.635 95.8218 87.9364 94.563 87.9226 93.3063C87.9246 93.3122 87.9286 93.3181 87.9305 93.324V93.3259C87.9325 93.3397 87.9325 93.3535 87.9345 93.3673C87.9444 93.4953 87.9542 93.6214 87.9621 93.7475C87.9719 93.8874 87.9798 94.0253 87.9857 94.1612C87.9916 94.2596 87.9956 94.3562 87.9975 94.4527C87.9995 94.5059 88.0014 94.5591 88.0014 94.6123C88.0684 97.774 87.2528 100.13 85.151 100.961Z" fill="#DFE8F4"/>
<path d="M73.7472 82.9386C74.4996 85.2729 75.0788 87.6545 75.7229 90.0203C75.0355 90.5384 74.3953 91.1254 73.822 91.7715C71.8916 85.6491 70.7274 78.0454 68.8501 74.1845C68.8343 74.0426 68.8146 73.9028 68.7949 73.7609L68.8323 73.623C71.1883 76.2607 72.6637 79.5721 73.7472 82.9386Z" fill="#777787"/>
<path d="M68.4799 72.4286C69.3542 73.5912 69.8382 74.9007 70.3028 76.2351C70.7401 77.5363 71.096 78.848 71.4332 80.1594C72.7819 85.3253 73.7099 90.6938 75.8825 95.56C76.7031 97.2734 77.6838 99.0116 79.352 99.931C79.8736 100.208 80.4431 100.355 81.0286 100.37C81.1466 100.373 81.2553 100.41 81.3463 100.472C81.5752 100.626 81.8596 100.744 82.1599 100.823C82.7556 100.978 83.4304 100.993 84.0252 100.846C84.3252 100.77 84.595 100.651 84.7949 100.489C85.5198 100.17 86.1447 99.6959 86.5413 98.9792C88.7956 94.7264 85.9617 86.3104 84.3715 81.9437C82.2246 76.3591 79.5548 70.9056 76.017 66.0617C75.4987 65.3788 74.9464 64.7209 74.3169 64.124C76.4971 65.5853 78.0829 67.7709 79.5493 69.9098C83.8478 76.5304 89.5278 88.9991 88.4966 96.9413C88.2562 98.7885 87.2601 100.842 85.3686 101.51C85.3682 101.51 85.5222 101.421 85.52 101.422C84.1501 102.423 82.0837 102.329 80.6828 101.45L81.0004 101.551C80.2391 101.534 79.4711 101.334 78.8028 100.978C73.6294 98.2778 71.8213 85.9039 70.2881 80.4527C69.7843 78.5239 69.2753 76.5962 68.4775 74.7821C68.2116 74.1939 67.9114 73.6243 67.5444 73.151C67.0875 72.538 67.9784 71.8132 68.4799 72.4286Z" fill="#000072"/>
<path d="M80.6901 100.54C80.6726 100.469 80.67 100.479 80.7069 100.475C80.8123 100.426 80.8878 100.306 80.9499 100.202C81.1759 99.7316 81.2282 99.2166 81.2291 98.6737C81.2206 97.8649 81.0698 97.038 80.8185 96.2324C81.0534 96.5867 81.2544 96.9658 81.4337 97.3609C81.8704 98.459 82.2475 99.8023 81.6877 100.941C81.5895 101.127 81.4387 101.307 81.256 101.426C81.2178 101.456 81.162 101.467 81.0694 101.369C80.8433 101.151 80.767 100.826 80.6901 100.54Z" fill="#000072"/>
<path d="M84.2017 100.814C85.4199 99.5519 85.2411 97.443 84.7587 95.8389C85.4477 97.09 85.8692 98.5898 85.6461 100.051C85.562 100.564 85.3866 101.095 85.0458 101.568C84.53 102.231 83.5999 101.402 84.2017 100.814Z" fill="#000072"/>
<path d="M85.2724 28.9473C89.6389 23.3157 93.7605 5.71757 89.4196 2.47061C84.9307 -0.886927 71.2299 5.70731 67.6387 8.8084L85.2724 28.9473Z" fill="#FAA625"/>
<path d="M67.6387 8.80897L71.0166 12.6676L85.2726 28.948C88.71 24.5126 91.9959 12.6625 91.12 6.23755C90.8838 4.50148 90.3434 3.16222 89.42 2.47057C84.9304 -0.88675 71.2294 5.70678 67.6387 8.80897Z" fill="#7979CB"/>
<g opacity="0.5">
<path d="M67.6387 8.809L68.2506 9.50809C72.6085 6.25524 85.1272 0.507234 89.3805 3.68694C90.3039 4.37855 90.8443 5.71785 91.0806 7.45388C91.1853 8.22282 91.2313 9.06879 91.2235 9.96954C91.2982 8.60896 91.2718 7.34246 91.1201 6.23753C90.8838 4.50147 90.3434 3.1622 89.4201 2.47055C84.9304 -0.886728 71.2294 5.7068 67.6387 8.809Z" fill="white"/>
</g>
<path d="M71.0156 12.6676L85.2716 28.948C88.709 24.5126 91.9949 12.6626 91.119 6.23761C90.5344 5.13203 89.7221 4.48679 88.6084 4.40277C83.2466 3.99834 72.9694 10.9172 71.0156 12.6676Z" fill="#777787"/>
<path d="M85.2693 29.5389C85.1428 29.5389 85.0153 29.4984 84.9076 29.4149C84.6498 29.2149 84.6026 28.8437 84.8026 28.5857C88.053 24.394 91.4157 12.8482 90.5334 6.32953C90.3083 4.66608 89.7999 3.49563 89.063 2.94437C85.046 -0.0596103 71.7701 6.01988 68.0221 9.25622C67.7753 9.46955 67.4022 9.44225 67.1886 9.19514C66.9753 8.94816 67.0026 8.57496 67.2497 8.36163C70.8402 5.2612 84.9309 -1.62299 89.7709 1.99795C90.7816 2.7539 91.4323 4.1579 91.7047 6.17089C92.6213 12.9426 89.1195 24.9471 85.7367 29.31C85.6202 29.4602 85.4456 29.5389 85.2693 29.5389Z" fill="#000072"/>
<path d="M87.9025 5.48746C86.5167 4.09706 77.2452 6.63162 76.2466 9.57104C75.3051 12.3428 78.5452 16.7672 79.1143 17.2775C79.6834 17.7878 83.3971 22.1296 84.9984 20.8465C87.6555 18.7174 89.7613 7.35243 87.9025 5.48746Z" fill="#FF8080"/>
<path d="M79.115 17.2775C79.6839 17.7888 83.3967 22.1304 84.9985 20.8468C86.0543 20.0014 87.0234 17.6963 87.6901 15.1091C88.3822 12.4283 88.7505 9.44363 88.5579 7.46287C88.4677 6.54516 88.2572 5.8429 87.9032 5.48745C86.5173 4.09705 77.2459 6.63161 76.2463 9.572C75.3058 12.3439 78.5457 16.7676 79.115 17.2775Z" fill="#FFA9A9"/>
<path d="M79.115 17.2774C79.6839 17.7887 83.3967 22.1303 84.9985 20.8468C86.0543 20.0014 87.0234 17.6963 87.6901 15.1091C86.8101 16.2243 85.6658 17.1278 84.7792 15.9526C83.3327 14.031 81.1258 11.711 82.0239 9.2336C82.626 7.57346 86.9847 6.06226 88.5579 7.46287C88.4677 6.54516 88.2572 5.8429 87.9032 5.48745C86.5173 4.09705 77.2459 6.63161 76.2463 9.57201C75.3058 12.3439 78.5457 16.7676 79.115 17.2774Z" fill="#F28686"/>
<path d="M84.3027 21.6775C82.5432 21.6775 80.2969 19.3456 79.1065 18.1099C78.9342 17.9311 78.7856 17.7767 78.7209 17.7187C78.054 17.1208 74.6284 12.5012 75.6882 9.38215C76.474 7.06951 80.8782 5.47851 83.3567 4.90308C84.8117 4.56538 87.392 4.13806 88.3222 5.07158C89.0157 5.76733 89.3013 7.30499 89.1708 9.64172C88.9323 13.9104 87.3124 19.7517 85.3689 21.3089C85.0474 21.5664 84.6865 21.6775 84.3027 21.6775ZM86.3333 5.68559C85.6951 5.68559 84.7958 5.78235 83.624 6.05438C80.241 6.8398 77.2467 8.46854 76.8072 9.76231C76.0172 12.0881 78.8729 16.2675 79.5098 16.8386C79.6068 16.9255 79.7464 17.0705 79.9578 17.2899C83.1933 20.6487 84.2749 20.6722 84.6297 20.3865C86.1135 19.1979 87.7467 13.944 87.9906 9.5758C88.114 7.36766 87.8104 6.23222 87.4852 5.90592C87.3668 5.78706 86.9868 5.68559 86.3333 5.68559Z" fill="#000072"/>
<path d="M25.2318 30.2956C20.3948 24.7506 15.0967 6.85549 19.3778 3.24957C23.8049 -0.479231 38.3216 5.50139 42.2085 8.48397L25.2318 30.2956Z" fill="#FAA625"/>
<path d="M42.2066 8.48455L38.9545 12.6636L25.2297 30.2963C21.4217 25.9291 17.3278 13.9095 17.8476 7.23411C17.9876 5.4304 18.4648 4.01759 19.3754 3.24958C23.8033 -0.479091 38.3201 5.50082 42.2066 8.48455Z" fill="#7979CB"/>
<g opacity="0.5">
<path d="M42.2071 8.48453L41.618 9.24171C36.9317 6.14837 23.6841 0.969636 19.4891 4.50109C18.5785 5.26911 18.1014 6.68196 17.9613 8.48563C17.8992 9.28452 17.9022 10.1593 17.964 11.0874C17.8059 9.68934 17.7575 8.38218 17.8481 7.23414C17.9881 5.43043 18.4653 4.01762 19.3759 3.2496C23.8039 -0.479112 38.3206 5.5008 42.2071 8.48453Z" fill="white"/>
</g>
<path d="M38.9545 12.6642L25.2297 30.2969C21.4217 25.9296 17.3278 13.91 17.8476 7.23465C18.3843 6.0601 19.1832 5.34651 20.3262 5.19352C25.8293 4.4569 36.8361 10.9763 38.9545 12.6642Z" fill="#777787"/>
<path d="M25.2298 30.8876C25.0651 30.8876 24.901 30.8191 24.7843 30.6851C21.0393 26.3921 16.7164 14.2335 17.257 7.20242C17.4174 5.11641 18.0021 3.63481 18.9949 2.79861C23.7609 -1.21609 38.683 5.03674 42.5662 8.01615C42.8251 8.21486 42.8739 8.58589 42.6752 8.84481C42.4765 9.10359 42.1055 9.1523 41.8467 8.95394C37.7867 5.83845 23.7239 0.361469 19.7562 3.70267C19.0255 4.31822 18.5688 5.55976 18.4355 7.29309C17.9144 14.0697 22.0722 25.7783 25.675 29.9082C25.8896 30.1541 25.864 30.5274 25.6182 30.7421C25.5062 30.8397 25.3677 30.8876 25.2298 30.8876Z" fill="#000072"/>
<path d="M21.1197 6.27076C22.4654 4.7548 32.174 6.81465 33.3786 9.78521C34.5145 12.5863 31.4383 17.3404 30.8821 17.9004C30.3259 18.4603 26.7565 23.1575 25.0293 21.9304C22.1633 19.894 19.3147 8.30409 21.1197 6.27076Z" fill="#FF8080"/>
<path d="M30.8818 17.8993C30.3258 18.4603 26.7574 23.1573 25.0297 21.9297C23.8909 21.1212 22.7544 18.8027 21.9129 16.1755C21.0396 13.4533 20.482 10.3985 20.5624 8.34516C20.6006 7.39376 20.7757 6.65732 21.1194 6.26977C22.4651 4.75381 32.1737 6.81367 33.3794 9.78515C34.5142 12.5865 31.4382 17.3398 30.8818 17.8993Z" fill="#FFA9A9"/>
<path d="M30.8819 17.8993C30.3259 18.4603 26.7575 23.1573 25.0298 21.9297C23.891 21.1212 22.7545 18.8027 21.913 16.1755C22.8867 17.2726 24.1201 18.1358 24.964 16.8715C26.3404 14.8043 28.4771 12.2811 27.4036 9.78088C26.6839 8.10546 22.1006 6.80754 20.5625 8.34516C20.6007 7.39376 20.7758 6.65732 21.1195 6.26977C22.4652 4.75381 32.1738 6.81367 33.3796 9.78515C34.5143 12.5865 31.4383 17.3398 30.8819 17.8993Z" fill="#F28686"/>
<path d="M25.6813 22.7278C25.3308 22.7278 24.9955 22.6315 24.6858 22.4116C22.5935 20.925 20.5788 15.0063 20.079 10.624C19.8059 8.229 20.007 6.63219 20.6766 5.87796C21.5738 4.86737 24.251 5.15358 25.7666 5.41421C28.3523 5.85893 32.9801 7.23303 33.925 9.56254C35.1996 12.7053 31.9508 17.6613 31.3002 18.3163C31.2364 18.3805 31.0919 18.549 30.9246 18.7441C29.749 20.1146 27.5076 22.7278 25.6813 22.7278ZM23.1969 6.3491C22.2361 6.3491 21.7009 6.50447 21.5605 6.66253C21.5605 6.66267 21.5605 6.66267 21.5605 6.66267C21.242 7.02146 20.9941 8.21535 21.2534 10.4902C21.7142 14.5324 23.6132 20.1995 25.3705 21.4481C25.7595 21.7248 26.8816 21.6422 30.0274 17.9746C30.2321 17.7359 30.3674 17.5782 30.4616 17.4834C30.9244 17.0176 33.8455 12.5111 32.8296 10.0068C32.2881 8.67165 29.1658 7.19806 25.5664 6.57908C24.5977 6.41252 23.8104 6.3491 23.1969 6.3491Z" fill="#000072"/>
<path d="M49.6303 3.45176C31.719 6.22506 21.4179 18.2931 20.0215 39.5918C19.9692 40.3891 19.7551 41.1697 19.384 41.8773C13.4366 53.2189 20.9002 68.9278 56.2927 68.1625C84.3014 68.3543 98.3465 53.7388 90.2806 40.2853C89.8256 39.5264 89.5502 38.6726 89.4728 37.7912C87.7661 18.3421 78.9591 6.30671 62.8409 3.48871C58.475 2.7254 54.0101 2.77363 49.6303 3.45176Z" fill="#7979CB"/>
<g opacity="0.5">
<path d="M49.021 5.33698C53.8954 4.67858 58.8644 4.63177 63.7232 5.37283C69.0166 6.18018 73.6008 7.76739 77.4831 10.0882C73.5543 6.73724 68.6779 4.50797 62.8424 3.48773C58.4766 2.72443 54.0117 2.77265 49.6318 3.45078C42.7648 4.51405 37.0178 6.94524 32.4609 10.7374C37.0728 8.00512 42.6078 6.20321 49.021 5.33698Z" fill="white"/>
<path d="M54.6211 68.1855C54.6552 68.1853 54.6897 68.1848 54.7238 68.1846C54.6897 68.1848 54.6551 68.1853 54.6211 68.1855Z" fill="white"/>
</g>
<path d="M56.294 64.2232C29.8686 64.7945 19.0148 56.182 17.6857 47.0605C16.2155 57.4558 26.0693 68.8165 56.294 68.163C80.3915 68.328 94.152 57.5324 92.3888 45.9463C90.8575 55.9245 77.6277 64.3693 56.294 64.2232Z" fill="#777787"/>
<path d="M65.3656 45.6963C64.1355 44.8235 62.9951 43.8195 62.0953 42.6091C60.598 40.5949 58.2913 39.3037 55.7023 39.3037C53.1133 39.3037 50.8067 40.5949 49.3094 42.6091C48.4095 43.8195 47.2692 44.8235 46.0391 45.6963C43.5518 47.4611 42.0117 49.9021 42.0117 52.6003C42.0117 57.9856 48.1412 62.3512 55.7023 62.3512C63.2635 62.3512 69.3929 57.9856 69.3929 52.6003C69.3929 49.902 67.8528 47.4611 65.3656 45.6963Z" fill="white"/>
<path d="M71.7555 22.1524C71.7555 22.1524 69.2483 17.5833 66.3521 18.834C65.3312 19.2748 65.096 21.0738 66.1763 21.755C68.4022 23.1584 71.7555 22.1524 71.7555 22.1524Z" fill="#000072"/>
<path d="M37.5215 22.448C37.5215 22.448 40.0232 17.8588 42.9246 19.0796C43.9474 19.5099 44.1859 21.3047 43.1057 21.9958C40.88 23.4198 37.5215 22.448 37.5215 22.448Z" fill="#000072"/>
<path d="M48.9628 46.8951C48.6803 51.0348 54.6877 51.3687 55.628 47.7438C55.6268 47.305 55.6249 46.5186 55.6238 46.1999H55.6246C55.6254 46.5186 55.6282 47.305 55.6294 47.7437C56.591 51.3559 62.5962 50.9412 62.2895 46.8054C62.2895 46.8054 60.2303 44.3902 55.6202 44.4212C51.0101 44.4522 48.9628 46.8951 48.9628 46.8951Z" fill="white"/>
<path d="M61.8153 47.3519C61.8663 47.6088 61.029 49.1543 59.2659 49.2211C57.5563 49.2858 56.6861 48.0735 56.7826 47.5051C56.8897 46.8752 57.721 47.3148 58.2716 47.5725C60.8205 48.7653 61.7791 47.1694 61.8153 47.3519Z" fill="#DFE8F4"/>
<path d="M49.4454 47.434C49.3959 47.6917 50.2422 49.2258 52.0056 49.2689C53.7156 49.3106 54.5786 48.0867 54.4787 47.5196C54.368 46.8911 53.5393 47.3419 52.9902 47.607C50.4484 48.834 49.4805 47.251 49.4454 47.434Z" fill="#DFE8F4"/>
<path d="M56.0855 46.1996C56.1316 46.7134 56.1524 47.2278 56.1682 47.7429L56.1501 47.6063C56.5215 49.0148 57.9787 49.8047 59.3892 49.6893C60.9991 49.5825 62.0989 48.3827 62.2909 46.8062C62.7506 48.1138 62.0651 49.6531 60.8213 50.256C58.6932 51.39 55.6781 50.3398 55.1117 47.8826C55.0681 47.3263 55.1371 46.7599 55.1666 46.2017C55.1875 45.9479 55.4102 45.7591 55.6639 45.7799C55.8911 45.7987 56.0663 45.98 56.0855 46.1996Z" fill="#000072"/>
<path d="M56.0845 46.1982C56.1207 46.7504 56.1811 47.3095 56.154 47.861C56.0381 48.326 55.8412 48.7823 55.551 49.1777C54.1656 51.1141 50.8811 51.3458 49.3889 49.4391C48.8345 48.7174 48.692 47.7341 48.964 46.8949C49.1001 47.6822 49.3645 48.4111 49.95 48.9438C51.5148 50.4186 54.5646 49.7769 55.1092 47.6087L55.0921 47.7452C55.1048 47.23 55.1226 46.7154 55.1657 46.2014C55.2191 45.6431 56.028 45.643 56.0845 46.1982Z" fill="#000072"/>
<path d="M52.3983 44.5984C53.0145 46.3154 55.6323 47.267 55.6323 47.267C55.6323 47.267 58.2434 46.2776 58.8477 44.5518C59.279 43.317 56.2023 43.1384 55.6181 43.1427C55.0339 43.1468 51.9586 43.37 52.3983 44.5984Z" fill="#000072"/>
<g opacity="0.5">
<path d="M54.2833 43.7797C54.5378 44.2127 55.6217 44.1968 55.6217 44.1968C55.6217 44.1968 56.7057 44.197 56.9572 43.7604C57.1366 43.448 55.8612 43.4065 55.619 43.4083C55.3767 43.41 54.1016 43.47 54.2833 43.7797Z" fill="white"/>
</g>
<path d="M55.8477 45.6103L56.1148 47.5882C56.1492 47.8418 55.9712 48.0753 55.7176 48.1095C55.4203 48.1543 55.1535 47.8867 55.1959 47.5903L55.4539 45.6112C55.4812 45.3844 55.8204 45.3855 55.8477 45.6103Z" fill="#000072"/>
<path d="M26.1372 18.0625C24.9863 20.9663 23.6731 23.718 22.7816 26.6991C21.5501 30.7524 20.9136 34.9781 20.6398 39.2005C20.6032 40.1456 20.4323 41.1055 20.0137 41.9591C18.1261 45.5138 17.5491 49.7789 19.0334 53.5775C20.6376 57.8464 24.3867 60.8961 28.3843 62.8826C35.3331 66.415 43.175 66.9268 50.7785 68.1446C48.0468 68.4032 45.2944 68.3491 42.5665 68.0743C34.6205 67.0771 25.5231 64.6874 20.2303 58.2465C16.2773 53.4155 15.9235 47.1379 18.8102 41.6835C19.1458 41.0536 19.3595 40.3963 19.4253 39.6878C19.4521 39.2885 19.5413 38.3471 19.5709 37.9446C20.1862 31.7837 22.0018 22.784 26.1372 18.0625Z" fill="#000072"/>
<path d="M83.7474 17.6807C87.7948 22.9237 89.3837 31.2594 90.0567 37.7597C90.1314 38.7461 90.5669 39.6326 91.0714 40.4646C95.9034 48.8347 91.935 57.1635 84.3155 62.0213C81.9151 63.5682 79.2913 64.8045 76.5836 65.7016C73.2157 66.8026 69.6714 67.4567 66.1426 67.5678C71.9002 66.1608 77.672 64.6246 82.7573 61.5314C90.1896 57.0606 94.6204 49.304 90.0169 41.0545C89.436 40.0751 88.9718 39.0145 88.8953 37.8656C88.6613 35.0826 88.3039 32.3157 87.7169 29.5861C86.8576 25.4589 85.3547 21.5986 83.7474 17.6807Z" fill="#000072"/>
<path d="M31.3457 11.7161C41.0074 1.12207 61.902 -0.724366 73.8317 6.91309C75.6549 8.1031 77.3322 9.52859 78.7153 11.2059C77.0037 9.91263 75.2382 8.7279 73.3537 7.72647C60.4997 0.871167 42.7977 2.81405 31.3457 11.7161Z" fill="#000072"/>
<path d="M40.0155 45.4889C43.1824 45.4889 45.7497 42.5242 45.7497 38.867C45.7497 35.2098 43.1824 32.2451 40.0155 32.2451C36.8485 32.2451 34.2812 35.2098 34.2812 38.867C34.2812 42.5242 36.8485 45.4889 40.0155 45.4889Z" fill="#000072"/>
<path d="M41.5747 39.3185C42.6072 39.3185 43.4443 38.2589 43.4443 36.9517C43.4443 35.6446 42.6072 34.585 41.5747 34.585C40.5421 34.585 39.7051 35.6446 39.7051 36.9517C39.7051 38.2589 40.5421 39.3185 41.5747 39.3185Z" fill="white"/>
<g opacity="0.2">
<path d="M37.8773 42.7006C38.4491 42.7006 38.9127 41.9834 38.9127 41.0988C38.9127 40.2142 38.4491 39.4971 37.8773 39.4971C37.3054 39.4971 36.8418 40.2142 36.8418 41.0988C36.8418 41.9834 37.3054 42.7006 37.8773 42.7006Z" fill="white"/>
</g>
<path d="M70.7498 45.4889C73.9168 45.4889 76.4841 42.5242 76.4841 38.867C76.4841 35.2098 73.9168 32.2451 70.7498 32.2451C67.5829 32.2451 65.0156 35.2098 65.0156 38.867C65.0156 42.5242 67.5829 45.4889 70.7498 45.4889Z" fill="#000072"/>
<path d="M69.1899 39.3185C70.2225 39.3185 71.0595 38.2589 71.0595 36.9517C71.0595 35.6446 70.2225 34.585 69.1899 34.585C68.1574 34.585 67.3203 35.6446 67.3203 36.9517C67.3203 38.2589 68.1574 39.3185 69.1899 39.3185Z" fill="white"/>
<g opacity="0.2">
<path d="M72.887 42.7006C73.4589 42.7006 73.9225 41.9834 73.9225 41.0988C73.9225 40.2142 73.4589 39.4971 72.887 39.4971C72.3152 39.4971 71.8516 40.2142 71.8516 41.0988C71.8516 41.9834 72.3152 42.7006 72.887 42.7006Z" fill="white"/>
</g>
<path d="M85.8992 0.945285C87.4079 0.945285 88.7667 1.24071 89.7753 1.99507C90.786 2.75116 91.4367 4.15516 91.7091 6.16815C92.4416 11.5803 90.3514 20.3314 87.7556 25.8559C89.002 29.8159 89.6763 34.0807 90.0572 37.7582C90.1318 38.7446 90.5675 39.631 91.0718 40.4631C95.9039 48.8331 91.9353 57.1619 84.3161 62.0198C81.9156 63.5667 79.2919 64.803 76.5841 65.7001C76.4921 65.7302 76.3992 65.7587 76.3067 65.7882C77.5356 67.0294 78.5702 68.4789 79.5503 69.9087C81.4466 72.8291 83.6109 76.8881 85.3502 81.194C85.6807 81.205 85.9893 81.2303 86.2686 81.274C86.8864 81.3703 87.4268 81.7312 87.7511 82.2638C90.3597 86.5471 93.4034 92.4126 90.8651 95.3349C91.5016 97.1957 92.0642 99.1118 92.5377 101.063C92.6446 101.503 92.6929 101.901 92.6858 102.278C92.6256 105.332 89.5411 108.446 84.0008 111.047C81.7519 112.102 79.1792 113.021 76.6029 113.72C75.8666 117.395 75.0274 121.039 74.0515 124.664C75.2636 125.283 76.3152 126.191 76.9098 127.458C77.2925 128.273 77.3814 129.206 77.2411 130.08C76.9081 132.454 74.3308 133.471 72.2892 133.9C71.6505 134.024 71.0131 134.116 70.3762 134.183C69.9977 134.243 69.6212 134.272 69.2545 134.277C68.5494 134.322 67.8443 134.34 67.1379 134.34C66.5454 134.34 65.9521 134.327 65.3575 134.307C65.2384 134.315 65.1193 134.319 65.001 134.319C64.7763 134.319 64.5542 134.304 64.338 134.274C64.3234 134.272 64.31 134.267 64.2959 134.264C64.1483 134.257 64.0011 134.25 63.8533 134.243C61.3638 134.027 56.8953 133.616 56.0925 130.712C55.7777 129.29 55.7084 127.907 55.6293 126.48C55.4192 121.421 55.5932 116.375 55.5301 111.33C55.4891 111.331 55.4478 111.331 55.4065 111.331C55.3452 111.331 55.2841 111.331 55.2228 111.331C54.8261 113.721 54.5551 116.13 54.3466 118.543C54.1296 121.088 54.0036 123.64 53.9653 126.194C55.0254 128.257 55.4906 130.964 54.0664 132.959C53.1299 134.211 51.6313 134.819 50.16 135.114C49.3525 135.292 48.4448 135.343 47.6182 135.399C46.2591 135.465 44.8684 135.56 43.4761 135.56C42.0418 135.56 40.6059 135.46 39.2017 135.127C37.1861 134.617 36.0105 133.466 35.3996 131.485C35.2155 130.939 35.0849 130.381 34.9979 129.818C33.7049 129.811 32.655 128.758 32.655 127.463V116.217C32.655 115.157 33.3595 114.259 34.3248 113.965C34.1526 112.875 33.9657 111.787 33.7563 110.704C31.2747 111.752 28.7465 112.278 26.2174 112.278C23.5818 112.278 20.9454 111.708 18.3576 110.562C7.83831 105.906 9.46939 96.9869 10.6605 90.4749C11.0394 88.4036 11.3665 86.6147 11.2611 85.2743C11.0878 83.0701 10.3119 82.732 8.81547 82.732C8.5153 82.732 8.18583 82.7456 7.82673 82.7605C7.47621 82.7749 7.10786 82.79 6.72788 82.79C5.31163 82.79 3.73839 82.5795 2.36512 81.3337C1.05189 80.1426 0.594705 78.1305 1.17207 76.0826C1.98215 73.2078 4.46368 71.1131 7.80973 70.4791C8.50301 70.3476 9.20321 70.2835 9.90142 70.2835C12.9625 70.2837 15.9776 71.5177 18.1134 73.7224C21.0128 76.7158 22.0136 81.0415 20.9313 85.9033C20.5461 87.6331 20.124 89.2416 19.7515 90.6607C17.948 97.5329 17.0427 100.983 23.3474 103.584C24.6375 104.116 25.912 104.34 27.145 104.34C28.7522 104.34 30.2889 103.959 31.6953 103.379C31.2346 102.156 30.757 100.937 30.3519 99.6933C28.8851 95.2982 27.7304 90.7216 27.6927 86.0546C27.6147 79.0791 29.2696 72.1268 32.3698 65.8997C27.6854 64.3716 23.3121 61.9962 20.2297 58.2453C16.2766 53.4142 15.9229 47.1366 18.8096 41.6822C19.1453 41.0523 19.3588 40.395 19.4246 39.6866C19.4515 39.2872 19.5408 38.3458 19.5702 37.9433C19.9154 34.4877 20.6383 30.1393 21.9363 26.1534C19.1741 20.5938 16.8552 12.4618 17.2597 7.2005C17.4201 5.1144 18.0048 3.63275 18.9976 2.79647C20.0965 1.87061 21.7345 1.49081 23.6535 1.49094C28.4246 1.49134 34.9285 3.84001 39.1695 5.9856C44.2166 3.50733 50.1914 2.24949 56.0701 2.24963C61.5807 2.24967 67.0075 3.35499 71.5059 5.59629C73.397 4.56658 75.6566 3.51102 77.9918 2.6599C80.4256 1.77298 83.3729 0.945285 85.8992 0.945285ZM85.8992 0.504883C83.7223 0.504883 81.0113 1.09075 77.8412 2.24619C75.2056 3.20675 72.9673 4.30934 71.4966 5.1007C67.0816 2.947 61.7534 1.80935 56.0705 1.80931C50.0926 1.80918 44.1018 3.11678 39.1729 5.49442C35.0217 3.42198 28.5492 1.05107 23.6538 1.05067C21.486 1.05045 19.8239 1.52455 18.7139 2.45978C17.6275 3.37494 16.9906 4.95867 16.8207 7.16685C16.4018 12.6153 18.8266 20.8172 21.4626 26.1882C19.9977 30.7554 19.3743 35.4752 19.1322 37.8997C19.1317 37.9035 19.1315 37.9074 19.1311 37.9113C19.1178 38.0941 19.092 38.389 19.0653 38.6931C19.0337 39.0553 19.0008 39.4298 18.9857 39.6514C18.927 40.2759 18.7423 40.8725 18.4213 41.4752C16.9461 44.2623 16.2874 47.2899 16.516 50.2316C16.75 53.2459 17.9163 56.1134 19.8891 58.5242C22.6117 61.8374 26.6012 64.404 31.7527 66.1582C28.7312 72.4008 27.1766 79.2704 27.2525 86.0596C27.2854 90.1253 28.1125 94.3736 29.9343 99.8328C30.2672 100.855 30.6543 101.875 31.0284 102.861C31.0624 102.95 31.0962 103.04 31.1302 103.129C29.7718 103.641 28.4334 103.9 27.1453 103.9C25.9006 103.9 24.6794 103.657 23.5156 103.176C17.5665 100.722 18.3848 97.6042 20.1778 90.7725C20.5511 89.3503 20.9741 87.7382 21.3614 85.9992C22.4768 80.9881 21.4357 76.5193 18.4299 73.416C16.2305 71.1456 13.1221 69.8434 9.90164 69.8432C9.1707 69.8432 8.43937 69.9116 7.72781 70.0465C4.21384 70.7123 1.60477 72.9242 0.748451 75.9633C0.125458 78.173 0.63148 80.3559 2.06944 81.66C3.60398 83.052 5.36514 83.2305 6.72806 83.2305C7.11618 83.2305 7.48564 83.2154 7.84285 83.2007C8.1942 83.1862 8.52388 83.1725 8.8157 83.1725C10.1221 83.1725 10.6696 83.3657 10.8222 85.3089C10.9233 86.5926 10.6007 88.355 10.2274 90.3957C9.64101 93.6028 8.91091 97.5942 9.68681 101.305C10.602 105.68 13.3799 108.84 18.1796 110.965C20.8081 112.128 23.5124 112.718 26.2176 112.718C28.6342 112.718 31.056 112.246 33.4243 111.315C33.5636 112.062 33.6989 112.844 33.8342 113.683C32.8644 114.136 32.2149 115.129 32.2149 116.217V127.463C32.2149 128.869 33.2647 130.041 34.622 130.231C34.7119 130.713 34.8322 131.179 34.9805 131.619C35.6424 133.761 36.9497 135.012 39.094 135.554C40.3797 135.859 41.7704 136 43.4763 136C44.5778 136 45.6831 135.941 46.752 135.885C47.0492 135.869 47.3453 135.853 47.6399 135.839L47.8171 135.827C48.5919 135.776 49.4701 135.717 50.2554 135.544C52.1471 135.165 53.5511 134.384 54.4193 133.223C55.7351 131.38 55.7267 128.723 54.4076 126.092C54.4476 123.578 54.575 121.052 54.7857 118.58C54.8818 117.468 54.9865 116.416 55.1014 115.415C55.0992 115.981 55.0962 116.545 55.0932 117.103C55.0764 120.179 55.0592 123.359 55.1895 126.498L55.1968 126.631C55.2753 128.051 55.3495 129.393 55.6626 130.807C55.6643 130.814 55.6663 130.822 55.6682 130.829C56.5585 134.051 61.2792 134.461 63.8152 134.682C63.8208 134.683 63.8264 134.683 63.832 134.683C63.9653 134.69 64.0984 134.696 64.2315 134.702C64.2468 134.706 64.2618 134.708 64.2773 134.711C64.5109 134.743 64.7541 134.759 65.0012 134.759C65.121 134.759 65.2431 134.755 65.3646 134.748C66.0101 134.77 66.5905 134.78 67.138 134.78C67.901 134.78 68.599 134.76 69.2719 134.718C69.6712 134.711 70.0619 134.678 70.4335 134.62C71.1191 134.547 71.7537 134.453 72.3736 134.332C75.5545 133.665 77.3864 132.216 77.6774 130.141C77.8378 129.142 77.7073 128.12 77.3086 127.271C76.763 126.109 75.8418 125.158 74.5673 124.441C75.455 121.115 76.2461 117.717 76.9813 114.073C79.5502 113.362 82.0365 112.455 84.188 111.445C89.8883 108.769 93.0625 105.517 93.1263 102.287C93.1341 101.87 93.0816 101.436 92.9657 100.959C92.5169 99.1095 91.9772 97.2485 91.3607 95.4239C93.8093 92.2137 90.7046 86.2667 88.1273 82.0349C87.7355 81.3913 87.0829 80.9553 86.3367 80.839C86.1298 80.8067 85.9006 80.7827 85.6522 80.7674C84.0572 76.867 81.9763 72.8363 79.9199 69.669C79.9177 69.6658 79.9158 69.6628 79.9136 69.6598C79.1109 68.4886 78.1795 67.1669 77.1048 65.9892C79.759 65.0765 82.263 63.8669 84.5546 62.3901C88.5247 59.859 91.4456 56.4199 92.7778 52.7074C94.2502 48.6043 93.7921 44.2943 91.4534 40.243C91.0179 39.5243 90.568 38.6704 90.4964 37.725C90.4962 37.721 90.4957 37.7169 90.4953 37.7129C90.0298 33.2179 89.2668 29.2406 88.2269 25.8874C90.7485 20.4406 92.8909 11.6155 92.1455 6.10909C91.8567 3.97477 91.148 2.47194 90.0392 1.64244C89.0299 0.887592 87.6371 0.504883 85.8992 0.504883Z" fill="#000072"/>
</svg>
